<?xml version="1.0" encoding="UTF-8" standalone="no"?>
<!DOCTYPE svg PUBLIC "-//W3C//DTD SVG 1.1//EN" "http://www.w3.org/Graphics/SVG/1.1/DTD/svg11.dtd">
<svg width="100%" height="100%" viewBox="0 0 411 396" version="1.1" xmlns="http://www.w3.org/2000/svg"
     xml:space="preserve" xmlns:serif="http://www.serif.com/" style="fill-rule:evenodd;clip-rule:evenodd;">
    <rect id="Artboard1" x="0" y="0" width="411" height="396" style="fill:none;"/>
    <g id="Artboard11" serif:id="Artboard1">
        <g id="Layer-1" serif:id="Layer 1">
            <g id="text3185">
            </g>
            <g id="text3185-2">
            </g>
            <g id="text3185-6-6">
            </g>
            <g id="rect10-63-2" transform="matrix(1,0,0,1,-50,-26.4497)">
                <rect x="388.819" y="60.278" width="26.846" height="26.846" style="fill:rgb(0,255,0);stroke:black;stroke-width:1.5px;"/>
            </g>
            <g id="rect10-7-2" transform="matrix(1,0,0,1,-50,-26.4497)">
                <rect x="335.126" y="60.278" width="26.846" height="26.846" style="fill:rgb(255,255,0);stroke:black;stroke-width:1.5px;"/>
            </g>
            <g id="rect10-6-4" transform="matrix(1,0,0,1,-50,-26.4497)">
                <rect x="361.972" y="60.278" width="26.846" height="26.846" style="fill:rgb(255,255,0);stroke:black;stroke-width:1.5px;"/>
            </g>
            <g id="rect10-6-8-7" transform="matrix(1,0,0,1,-50,-26.4497)">
                <rect x="308.279" y="60.278" width="26.846" height="26.846" style="fill:rgb(255,255,0);stroke:black;stroke-width:1.5px;"/>
            </g>
            <g id="rect10-63-1-2" transform="matrix(1,0,0,1,-50,-26.4497)">
                <rect x="415.665" y="60.278" width="26.846" height="26.846" style="fill:rgb(0,255,0);stroke:black;stroke-width:1.5px;"/>
            </g>
            <g id="rect10-63-3-0" transform="matrix(1,0,0,1,-50,-26.4497)">
                <rect x="388.819" y="87.124" width="26.846" height="26.846" style="fill:rgb(0,255,0);stroke:black;stroke-width:1.5px;"/>
            </g>
            <g id="rect10-7-1-9" transform="matrix(1,0,0,1,-50,-26.4497)">
                <rect x="335.126" y="87.124" width="26.846" height="26.846" style="fill:rgb(255,255,0);stroke:black;stroke-width:1.5px;"/>
            </g>
            <g id="rect10-6-1-0" transform="matrix(1,0,0,1,-50,-26.4497)">
                <rect x="361.972" y="87.124" width="26.846" height="26.846" style="fill:rgb(255,255,0);stroke:black;stroke-width:1.5px;"/>
            </g>
            <g id="rect10-6-8-9-6" transform="matrix(1,0,0,1,-50,-26.4497)">
                <rect x="308.279" y="87.124" width="26.846" height="26.846" style="fill:rgb(255,255,0);stroke:black;stroke-width:1.5px;"/>
            </g>
            <g id="rect10-63-1-1-0" transform="matrix(1,0,0,1,-50,-26.4497)">
                <rect x="415.665" y="87.124" width="26.846" height="26.846" style="fill:rgb(0,255,0);stroke:black;stroke-width:1.5px;"/>
            </g>
            <g id="rect10-63-7-9" transform="matrix(1,0,0,1,-50,-26.4497)">
                <rect x="388.818" y="113.97" width="26.846" height="26.846" style="fill:rgb(0,255,0);stroke:black;stroke-width:1.5px;"/>
            </g>
            <g id="rect10-7-0-2" transform="matrix(1,0,0,1,-50,-26.4497)">
                <rect x="335.126" y="113.97" width="26.846" height="26.846" style="fill:rgb(255,255,0);stroke:black;stroke-width:1.5px;"/>
            </g>
            <g id="rect10-6-3-9" transform="matrix(1,0,0,1,-50,-26.4497)">
                <rect x="361.972" y="113.97" width="26.846" height="26.846" style="fill:rgb(255,255,0);stroke:black;stroke-width:1.5px;"/>
            </g>
            <g id="rect10-6-8-1-8" transform="matrix(1,0,0,1,-50,-26.4497)">
                <rect x="308.279" y="113.97" width="26.846" height="26.846" style="fill:rgb(255,255,0);stroke:black;stroke-width:1.5px;"/>
            </g>
            <g id="rect10-63-1-4-4" transform="matrix(1,0,0,1,-50,-26.4497)">
                <rect x="415.665" y="113.97" width="26.846" height="26.846" style="fill:rgb(0,255,0);stroke:black;stroke-width:1.5px;"/>
            </g>
            <g id="rect10-63-21" serif:id="rect10-63-2" transform="matrix(1,0,0,1,-282.47,-26.4497)">
                <rect x="388.819" y="60.278" width="26.846" height="26.846" style="fill:rgb(0,255,0);stroke:black;stroke-width:1.5px;"/>
            </g>
            <g id="rect10-7-21" serif:id="rect10-7-2" transform="matrix(1,0,0,1,-282.47,-26.4497)">
                <rect x="335.126" y="60.278" width="26.846" height="26.846" style="fill:rgb(255,255,0);stroke:black;stroke-width:1.5px;"/>
            </g>
            <g id="rect10-6-41" serif:id="rect10-6-4" transform="matrix(1,0,0,1,-282.47,-26.4497)">
                <rect x="361.972" y="60.278" width="26.846" height="26.846" style="fill:rgb(255,255,0);stroke:black;stroke-width:1.5px;"/>
            </g>
            <g id="rect10-6-8-71" serif:id="rect10-6-8-7" transform="matrix(1,0,0,1,-282.47,-26.4497)">
                <rect x="308.279" y="60.278" width="26.846" height="26.846" style="fill:rgb(255,255,0);stroke:black;stroke-width:1.5px;"/>
            </g>
            <g id="rect10-63-1-21" serif:id="rect10-63-1-2" transform="matrix(1,0,0,1,-282.47,-26.4497)">
                <rect x="415.665" y="60.278" width="26.846" height="26.846" style="fill:rgb(0,255,0);stroke:black;stroke-width:1.5px;"/>
            </g>
            <g id="rect10-63-3-01" serif:id="rect10-63-3-0" transform="matrix(1,0,0,1,-282.47,-26.4497)">
                <rect x="388.819" y="87.124" width="26.846" height="26.846" style="fill:rgb(0,255,0);stroke:black;stroke-width:1.5px;"/>
            </g>
            <g id="rect10-7-1-91" serif:id="rect10-7-1-9" transform="matrix(1,0,0,1,-282.47,-26.4497)">
                <rect x="335.126" y="87.124" width="26.846" height="26.846" style="fill:rgb(255,255,0);stroke:black;stroke-width:1.5px;"/>
            </g>
            <g id="rect10-6-1-01" serif:id="rect10-6-1-0" transform="matrix(1,0,0,1,-282.47,-26.4497)">
                <rect x="361.972" y="87.124" width="26.846" height="26.846" style="fill:rgb(255,255,0);stroke:black;stroke-width:1.5px;"/>
            </g>
            <g id="rect10-6-8-9-61" serif:id="rect10-6-8-9-6" transform="matrix(1,0,0,1,-282.47,-26.4497)">
                <rect x="308.279" y="87.124" width="26.846" height="26.846" style="fill:rgb(255,255,0);stroke:black;stroke-width:1.5px;"/>
            </g>
            <g id="rect10-63-1-1-01" serif:id="rect10-63-1-1-0" transform="matrix(1,0,0,1,-282.47,-26.4497)">
                <rect x="415.665" y="87.124" width="26.846" height="26.846" style="fill:rgb(0,255,0);stroke:black;stroke-width:1.5px;"/>
            </g>
            <g id="rect10-63-7-91" serif:id="rect10-63-7-9" transform="matrix(1,0,0,1,-282.47,-26.4497)">
                <rect x="388.818" y="113.97" width="26.846" height="26.846" style="fill:rgb(0,255,0);stroke:black;stroke-width:1.5px;"/>
            </g>
            <g id="rect10-7-0-21" serif:id="rect10-7-0-2" transform="matrix(1,0,0,1,-282.47,-26.4497)">
                <rect x="335.126" y="113.97" width="26.846" height="26.846" style="fill:rgb(255,255,0);stroke:black;stroke-width:1.5px;"/>
            </g>
            <g id="rect10-6-3-91" serif:id="rect10-6-3-9" transform="matrix(1,0,0,1,-282.47,-26.4497)">
                <rect x="361.972" y="113.97" width="26.846" height="26.846" style="fill:rgb(255,255,0);stroke:black;stroke-width:1.5px;"/>
            </g>
            <g id="rect10-6-8-1-81" serif:id="rect10-6-8-1-8" transform="matrix(1,0,0,1,-282.47,-26.4497)">
                <rect x="308.279" y="113.97" width="26.846" height="26.846" style="fill:rgb(255,255,0);stroke:black;stroke-width:1.5px;"/>
            </g>
            <g id="rect10-63-1-4-41" serif:id="rect10-63-1-4-4" transform="matrix(1,0,0,1,-282.47,-26.4497)">
                <rect x="415.665" y="113.97" width="26.846" height="26.846" style="fill:rgb(0,255,0);stroke:black;stroke-width:1.5px;"/>
            </g>
            <g transform="matrix(0.935397,0,0,1.82533,-23.7848,-300.978)">
                <path d="M201.307,210.632L201.307,200.337L264.353,200.337L264.353,190.776L293.054,205.484L264.353,220.192L264.353,210.632L201.307,210.632Z" style="fill:rgb(235,235,235);stroke:black;stroke-width:1.03px;stroke-linecap:round;stroke-linejoin:round;stroke-miterlimit:1.5;"/>
            </g>
            <g transform="matrix(1,0,0,1,-44.789,-25.3428)">
                <text x="211.466px" y="105.41px" style="font-family:'ArialMT', 'Arial', sans-serif;font-size:20px;">repairs</text>
            </g>
            <g transform="matrix(1.06652,0,0,0.998225,-38.1626,-11.6245)">
                <text x="60.568px" y="71.426px" style="font-family:'ArialMT', 'Arial', sans-serif;font-size:48px;fill:rgb(255,4,0);">x</text>
            </g>
            <g transform="matrix(1.15236,0,0,0.998225,9.30061,-11.6245)">
                <text x="60.568px" y="71.426px" style="font-family:'ArialMT', 'Arial', sans-serif;font-size:48px;fill:rgb(255,4,0);">x</text>
            </g>
            <g transform="matrix(1.15236,0,0,0.998225,62.9935,15.2219)">
                <text x="60.568px" y="71.426px" style="font-family:'ArialMT', 'Arial', sans-serif;font-size:48px;fill:rgb(255,4,0);">x</text>
            </g>
            <g transform="matrix(1.15236,0,0,0.998225,-17.5458,15.2219)">
                <text x="60.568px" y="71.426px" style="font-family:'ArialMT', 'Arial', sans-serif;font-size:48px;fill:rgb(255,4,0);">x</text>
            </g>
            <g transform="matrix(1.15236,0,0,0.998225,9.30061,42.0684)">
                <text x="60.568px" y="71.426px" style="font-family:'ArialMT', 'Arial', sans-serif;font-size:48px;fill:rgb(255,4,0);">x</text>
            </g>
            <g transform="matrix(1,0,0,1,-40.1485,-16.3887)">
                <text x="45.212px" y="41.951px" style="font-family:'ArialMT', 'Arial', sans-serif;font-size:30px;fill:rgb(16,8,8);">cycle 1</text>
            </g>
            <g id="rect10-63-22" serif:id="rect10-63-2" transform="matrix(1,0,0,1,-49,95.5503)">
                <rect x="388.819" y="60.278" width="26.846" height="26.846" style="fill:rgb(0,255,0);stroke:black;stroke-width:1.5px;"/>
            </g>
            <g id="rect10-7-22" serif:id="rect10-7-2" transform="matrix(1,0,0,1,-49,95.5503)">
                <rect x="335.126" y="60.278" width="26.846" height="26.846" style="fill:rgb(255,255,0);stroke:black;stroke-width:1.5px;"/>
            </g>
            <g id="rect10-6-42" serif:id="rect10-6-4" transform="matrix(1,0,0,1,-49,95.5503)">
                <rect x="361.972" y="60.278" width="26.846" height="26.846" style="fill:rgb(255,255,0);stroke:black;stroke-width:1.5px;"/>
            </g>
            <g id="rect10-6-8-72" serif:id="rect10-6-8-7" transform="matrix(1,0,0,1,-49,95.5503)">
                <rect x="308.279" y="60.278" width="26.846" height="26.846" style="fill:rgb(255,255,0);stroke:black;stroke-width:1.5px;"/>
            </g>
            <g id="rect10-63-1-22" serif:id="rect10-63-1-2" transform="matrix(1,0,0,1,-49,95.5503)">
                <rect x="415.665" y="60.278" width="26.846" height="26.846" style="fill:rgb(0,255,0);stroke:black;stroke-width:1.5px;"/>
            </g>
            <g id="rect10-63-3-02" serif:id="rect10-63-3-0" transform="matrix(1,0,0,1,-49,95.5503)">
                <rect x="388.819" y="87.124" width="26.846" height="26.846" style="fill:rgb(0,255,0);stroke:black;stroke-width:1.5px;"/>
            </g>
            <g id="rect10-7-1-92" serif:id="rect10-7-1-9" transform="matrix(1,0,0,1,-49,95.5503)">
                <rect x="335.126" y="87.124" width="26.846" height="26.846" style="fill:rgb(255,255,0);stroke:black;stroke-width:1.5px;"/>
            </g>
            <g id="rect10-6-1-02" serif:id="rect10-6-1-0" transform="matrix(1,0,0,1,-49,95.5503)">
                <rect x="361.972" y="87.124" width="26.846" height="26.846" style="fill:rgb(255,255,0);stroke:black;stroke-width:1.5px;"/>
            </g>
            <g id="rect10-6-8-9-62" serif:id="rect10-6-8-9-6" transform="matrix(1,0,0,1,-49,95.5503)">
                <rect x="308.279" y="87.124" width="26.846" height="26.846" style="fill:rgb(255,255,0);stroke:black;stroke-width:1.5px;"/>
            </g>
            <g id="rect10-63-1-1-02" serif:id="rect10-63-1-1-0" transform="matrix(1,0,0,1,-49,95.5503)">
                <rect x="415.665" y="87.124" width="26.846" height="26.846" style="fill:rgb(0,255,0);stroke:black;stroke-width:1.5px;"/>
            </g>
            <g id="rect10-63-7-92" serif:id="rect10-63-7-9" transform="matrix(1,0,0,1,-49,95.5503)">
                <rect x="388.818" y="113.97" width="26.846" height="26.846" style="fill:rgb(0,255,0);stroke:black;stroke-width:1.5px;"/>
            </g>
            <g id="rect10-7-0-22" serif:id="rect10-7-0-2" transform="matrix(1,0,0,1,-49,95.5503)">
                <rect x="335.126" y="113.97" width="26.846" height="26.846" style="fill:rgb(255,255,0);stroke:black;stroke-width:1.5px;"/>
            </g>
            <g id="rect10-6-3-92" serif:id="rect10-6-3-9" transform="matrix(1,0,0,1,-49,95.5503)">
                <rect x="361.972" y="113.97" width="26.846" height="26.846" style="fill:rgb(255,255,0);stroke:black;stroke-width:1.5px;"/>
            </g>
            <g id="rect10-6-8-1-82" serif:id="rect10-6-8-1-8" transform="matrix(1,0,0,1,-49,95.5503)">
                <rect x="308.279" y="113.97" width="26.846" height="26.846" style="fill:rgb(255,255,0);stroke:black;stroke-width:1.5px;"/>
            </g>
            <g id="rect10-63-1-4-42" serif:id="rect10-63-1-4-4" transform="matrix(1,0,0,1,-49,95.5503)">
                <rect x="415.665" y="113.97" width="26.846" height="26.846" style="fill:rgb(0,255,0);stroke:black;stroke-width:1.5px;"/>
            </g>
            <g id="rect10-63-23" serif:id="rect10-63-2" transform="matrix(1,0,0,1,-281.47,95.5503)">
                <rect x="388.819" y="60.278" width="26.846" height="26.846" style="fill:rgb(0,255,0);stroke:black;stroke-width:1.5px;"/>
            </g>
            <g id="rect10-7-23" serif:id="rect10-7-2" transform="matrix(1,0,0,1,-281.47,95.5503)">
                <rect x="335.126" y="60.278" width="26.846" height="26.846" style="fill:rgb(255,255,0);stroke:black;stroke-width:1.5px;"/>
            </g>
            <g id="rect10-6-43" serif:id="rect10-6-4" transform="matrix(1,0,0,1,-281.47,95.5503)">
                <rect x="361.972" y="60.278" width="26.846" height="26.846" style="fill:rgb(255,255,0);stroke:black;stroke-width:1.5px;"/>
            </g>
            <g id="rect10-6-8-73" serif:id="rect10-6-8-7" transform="matrix(1,0,0,1,-281.47,95.5503)">
                <rect x="308.279" y="60.278" width="26.846" height="26.846" style="fill:rgb(255,255,0);stroke:black;stroke-width:1.5px;"/>
            </g>
            <g id="rect10-63-1-23" serif:id="rect10-63-1-2" transform="matrix(1,0,0,1,-281.47,95.5503)">
                <rect x="415.665" y="60.278" width="26.846" height="26.846" style="fill:rgb(0,255,0);stroke:black;stroke-width:1.5px;"/>
            </g>
            <g id="rect10-63-3-03" serif:id="rect10-63-3-0" transform="matrix(1,0,0,1,-281.47,95.5503)">
                <rect x="388.819" y="87.124" width="26.846" height="26.846" style="fill:rgb(0,255,0);stroke:black;stroke-width:1.5px;"/>
            </g>
            <g id="rect10-7-1-93" serif:id="rect10-7-1-9" transform="matrix(1,0,0,1,-281.47,95.5503)">
                <rect x="335.126" y="87.124" width="26.846" height="26.846" style="fill:rgb(255,255,0);stroke:black;stroke-width:1.5px;"/>
            </g>
            <g id="rect10-6-1-03" serif:id="rect10-6-1-0" transform="matrix(1,0,0,1,-281.47,95.5503)">
                <rect x="361.972" y="87.124" width="26.846" height="26.846" style="fill:rgb(255,255,0);stroke:black;stroke-width:1.5px;"/>
            </g>
            <g id="rect10-6-8-9-63" serif:id="rect10-6-8-9-6" transform="matrix(1,0,0,1,-281.47,95.5503)">
                <rect x="308.279" y="87.124" width="26.846" height="26.846" style="fill:rgb(255,255,0);stroke:black;stroke-width:1.5px;"/>
            </g>
            <g id="rect10-63-1-1-03" serif:id="rect10-63-1-1-0" transform="matrix(1,0,0,1,-281.47,95.5503)">
                <rect x="415.665" y="87.124" width="26.846" height="26.846" style="fill:rgb(0,255,0);stroke:black;stroke-width:1.5px;"/>
            </g>
            <g id="rect10-63-7-93" serif:id="rect10-63-7-9" transform="matrix(1,0,0,1,-281.47,95.5503)">
                <rect x="388.818" y="113.97" width="26.846" height="26.846" style="fill:rgb(0,255,0);stroke:black;stroke-width:1.5px;"/>
            </g>
            <g id="rect10-7-0-23" serif:id="rect10-7-0-2" transform="matrix(1,0,0,1,-281.47,95.5503)">
                <rect x="335.126" y="113.97" width="26.846" height="26.846" style="fill:rgb(255,255,0);stroke:black;stroke-width:1.5px;"/>
            </g>
            <g id="rect10-6-3-93" serif:id="rect10-6-3-9" transform="matrix(1,0,0,1,-281.47,95.5503)">
                <rect x="361.972" y="113.97" width="26.846" height="26.846" style="fill:rgb(255,255,0);stroke:black;stroke-width:1.5px;"/>
            </g>
            <g id="rect10-6-8-1-83" serif:id="rect10-6-8-1-8" transform="matrix(1,0,0,1,-281.47,95.5503)">
                <rect x="308.279" y="113.97" width="26.846" height="26.846" style="fill:rgb(255,255,0);stroke:black;stroke-width:1.5px;"/>
            </g>
            <g id="rect10-63-1-4-43" serif:id="rect10-63-1-4-4" transform="matrix(1,0,0,1,-281.47,95.5503)">
                <rect x="415.665" y="113.97" width="26.846" height="26.846" style="fill:rgb(0,255,0);stroke:black;stroke-width:1.5px;"/>
            </g>
            <g transform="matrix(0.935397,0,0,1.82533,-22.7848,-178.978)">
                <path d="M201.307,210.632L201.307,200.337L264.353,200.337L264.353,190.776L293.054,205.484L264.353,220.192L264.353,210.632L201.307,210.632Z" style="fill:rgb(235,235,235);stroke:black;stroke-width:1.03px;stroke-linecap:round;stroke-linejoin:round;stroke-miterlimit:1.5;"/>
            </g>
            <g transform="matrix(1,0,0,1,-43.789,96.6572)">
                <text x="211.466px" y="105.41px" style="font-family:'ArialMT', 'Arial', sans-serif;font-size:20px;">repairs</text>
            </g>
            <g transform="matrix(1.06652,0,0,0.998225,-37.1626,110.375)">
                <text x="60.568px" y="71.426px" style="font-family:'ArialMT', 'Arial', sans-serif;font-size:48px;fill:rgb(255,4,0);">x</text>
            </g>
            <g transform="matrix(1.15236,0,0,0.998225,10.3006,110.375)">
                <text x="60.568px" y="71.426px" style="font-family:'ArialMT', 'Arial', sans-serif;font-size:48px;fill:rgb(255,4,0);">x</text>
            </g>
            <g transform="matrix(1.15236,0,0,0.998225,37.1471,137.222)">
                <text x="60.568px" y="71.426px" style="font-family:'ArialMT', 'Arial', sans-serif;font-size:48px;fill:rgb(255,4,0);">x</text>
            </g>
            <g transform="matrix(1.15236,0,0,0.998225,-43.3923,137.222)">
                <text x="60.568px" y="71.426px" style="font-family:'ArialMT', 'Arial', sans-serif;font-size:48px;fill:rgb(255,4,0);">x</text>
            </g>
            <g transform="matrix(1.15236,0,0,0.998225,-16.5458,137.222)">
                <text x="60.568px" y="71.426px" style="font-family:'ArialMT', 'Arial', sans-serif;font-size:48px;fill:rgb(255,4,0);">x</text>
            </g>
            <g transform="matrix(1.15236,0,0,0.998225,269.617,137.222)">
                <text x="60.568px" y="71.426px" style="font-family:'ArialMT', 'Arial', sans-serif;font-size:48px;fill:rgb(255,4,0);">x</text>
            </g>
            <g transform="matrix(1.15236,0,0,0.998225,189.078,137.222)">
                <text x="60.568px" y="71.426px" style="font-family:'ArialMT', 'Arial', sans-serif;font-size:48px;fill:rgb(255,4,0);">x</text>
            </g>
            <g transform="matrix(1.15236,0,0,0.998225,215.924,137.222)">
                <text x="60.568px" y="71.426px" style="font-family:'ArialMT', 'Arial', sans-serif;font-size:48px;fill:rgb(255,4,0);">x</text>
            </g>
            <g transform="matrix(1.15236,0,0,0.998225,-16.5458,164.068)">
                <text x="60.568px" y="71.426px" style="font-family:'ArialMT', 'Arial', sans-serif;font-size:48px;fill:rgb(255,4,0);">x</text>
            </g>
            <g transform="matrix(1,0,0,1,-39.1485,105.611)">
                <text x="45.212px" y="41.951px" style="font-family:'ArialMT', 'Arial', sans-serif;font-size:30px;fill:rgb(16,8,8);">cycle 2</text>
            </g>
            <g id="rect10-63-24" serif:id="rect10-63-2" transform="matrix(1,0,0,1,-50,220.55)">
                <rect x="388.819" y="60.278" width="26.846" height="26.846" style="fill:rgb(0,255,0);stroke:black;stroke-width:1.5px;"/>
            </g>
            <g id="rect10-7-24" serif:id="rect10-7-2" transform="matrix(1,0,0,1,-50,220.55)">
                <rect x="335.126" y="60.278" width="26.846" height="26.846" style="fill:rgb(255,255,0);stroke:black;stroke-width:1.5px;"/>
            </g>
            <g id="rect10-6-44" serif:id="rect10-6-4" transform="matrix(1,0,0,1,-50,220.55)">
                <rect x="361.972" y="60.278" width="26.846" height="26.846" style="fill:rgb(255,255,0);stroke:black;stroke-width:1.5px;"/>
            </g>
            <g id="rect10-6-8-74" serif:id="rect10-6-8-7" transform="matrix(1,0,0,1,-50,220.55)">
                <rect x="308.279" y="60.278" width="26.846" height="26.846" style="fill:rgb(255,255,0);stroke:black;stroke-width:1.5px;"/>
            </g>
            <g id="rect10-63-1-24" serif:id="rect10-63-1-2" transform="matrix(1,0,0,1,-50,220.55)">
                <rect x="415.665" y="60.278" width="26.846" height="26.846" style="fill:rgb(0,255,0);stroke:black;stroke-width:1.5px;"/>
            </g>
            <g id="rect10-63-3-04" serif:id="rect10-63-3-0" transform="matrix(1,0,0,1,-50,220.55)">
                <rect x="388.819" y="87.124" width="26.846" height="26.846" style="fill:rgb(0,255,0);stroke:black;stroke-width:1.5px;"/>
            </g>
            <g id="rect10-7-1-94" serif:id="rect10-7-1-9" transform="matrix(1,0,0,1,-50,220.55)">
                <rect x="335.126" y="87.124" width="26.846" height="26.846" style="fill:rgb(255,255,0);stroke:black;stroke-width:1.5px;"/>
            </g>
            <g id="rect10-6-1-04" serif:id="rect10-6-1-0" transform="matrix(1,0,0,1,-50,220.55)">
                <rect x="361.972" y="87.124" width="26.846" height="26.846" style="fill:rgb(255,255,0);stroke:black;stroke-width:1.5px;"/>
            </g>
            <g id="rect10-6-8-9-64" serif:id="rect10-6-8-9-6" transform="matrix(1,0,0,1,-50,220.55)">
                <rect x="308.279" y="87.124" width="26.846" height="26.846" style="fill:rgb(255,255,0);stroke:black;stroke-width:1.5px;"/>
            </g>
            <g id="rect10-63-1-1-04" serif:id="rect10-63-1-1-0" transform="matrix(1,0,0,1,-50,220.55)">
                <rect x="415.665" y="87.124" width="26.846" height="26.846" style="fill:rgb(0,255,0);stroke:black;stroke-width:1.5px;"/>
            </g>
            <g id="rect10-63-7-94" serif:id="rect10-63-7-9" transform="matrix(1,0,0,1,-50,220.55)">
                <rect x="388.818" y="113.97" width="26.846" height="26.846" style="fill:rgb(0,255,0);stroke:black;stroke-width:1.5px;"/>
            </g>
            <g id="rect10-7-0-24" serif:id="rect10-7-0-2" transform="matrix(1,0,0,1,-50,220.55)">
                <rect x="335.126" y="113.97" width="26.846" height="26.846" style="fill:rgb(255,255,0);stroke:black;stroke-width:1.5px;"/>
            </g>
            <g id="rect10-6-3-94" serif:id="rect10-6-3-9" transform="matrix(1,0,0,1,-50,220.55)">
                <rect x="361.972" y="113.97" width="26.846" height="26.846" style="fill:rgb(255,255,0);stroke:black;stroke-width:1.5px;"/>
            </g>
            <g id="rect10-6-8-1-84" serif:id="rect10-6-8-1-8" transform="matrix(1,0,0,1,-50,220.55)">
                <rect x="308.279" y="113.97" width="26.846" height="26.846" style="fill:rgb(255,255,0);stroke:black;stroke-width:1.5px;"/>
            </g>
            <g id="rect10-63-1-4-44" serif:id="rect10-63-1-4-4" transform="matrix(1,0,0,1,-50,220.55)">
                <rect x="415.665" y="113.97" width="26.846" height="26.846" style="fill:rgb(0,255,0);stroke:black;stroke-width:1.5px;"/>
            </g>
            <g id="rect10-63-25" serif:id="rect10-63-2" transform="matrix(1,0,0,1,-282.47,220.55)">
                <rect x="388.819" y="60.278" width="26.846" height="26.846" style="fill:rgb(0,255,0);stroke:black;stroke-width:1.5px;"/>
            </g>
            <g id="rect10-7-25" serif:id="rect10-7-2" transform="matrix(1,0,0,1,-282.47,220.55)">
                <rect x="335.126" y="60.278" width="26.846" height="26.846" style="fill:rgb(255,255,0);stroke:black;stroke-width:1.5px;"/>
            </g>
            <g id="rect10-6-45" serif:id="rect10-6-4" transform="matrix(1,0,0,1,-282.47,220.55)">
                <rect x="361.972" y="60.278" width="26.846" height="26.846" style="fill:rgb(255,255,0);stroke:black;stroke-width:1.5px;"/>
            </g>
            <g id="rect10-6-8-75" serif:id="rect10-6-8-7" transform="matrix(1,0,0,1,-282.47,220.55)">
                <rect x="308.279" y="60.278" width="26.846" height="26.846" style="fill:rgb(255,255,0);stroke:black;stroke-width:1.5px;"/>
            </g>
            <g id="rect10-63-1-25" serif:id="rect10-63-1-2" transform="matrix(1,0,0,1,-282.47,220.55)">
                <rect x="415.665" y="60.278" width="26.846" height="26.846" style="fill:rgb(0,255,0);stroke:black;stroke-width:1.5px;"/>
            </g>
            <g id="rect10-63-3-05" serif:id="rect10-63-3-0" transform="matrix(1,0,0,1,-282.47,220.55)">
                <rect x="388.819" y="87.124" width="26.846" height="26.846" style="fill:rgb(0,255,0);stroke:black;stroke-width:1.5px;"/>
            </g>
            <g id="rect10-7-1-95" serif:id="rect10-7-1-9" transform="matrix(1,0,0,1,-282.47,220.55)">
                <rect x="335.126" y="87.124" width="26.846" height="26.846" style="fill:rgb(255,255,0);stroke:black;stroke-width:1.5px;"/>
            </g>
            <g id="rect10-6-1-05" serif:id="rect10-6-1-0" transform="matrix(1,0,0,1,-282.47,220.55)">
                <rect x="361.972" y="87.124" width="26.846" height="26.846" style="fill:rgb(255,255,0);stroke:black;stroke-width:1.5px;"/>
            </g>
            <g id="rect10-6-8-9-65" serif:id="rect10-6-8-9-6" transform="matrix(1,0,0,1,-282.47,220.55)">
                <rect x="308.279" y="87.124" width="26.846" height="26.846" style="fill:rgb(255,255,0);stroke:black;stroke-width:1.5px;"/>
            </g>
            <g id="rect10-63-1-1-05" serif:id="rect10-63-1-1-0" transform="matrix(1,0,0,1,-282.47,220.55)">
                <rect x="415.665" y="87.124" width="26.846" height="26.846" style="fill:rgb(0,255,0);stroke:black;stroke-width:1.5px;"/>
            </g>
            <g id="rect10-63-7-95" serif:id="rect10-63-7-9" transform="matrix(1,0,0,1,-282.47,220.55)">
                <rect x="388.818" y="113.97" width="26.846" height="26.846" style="fill:rgb(0,255,0);stroke:black;stroke-width:1.5px;"/>
            </g>
            <g id="rect10-7-0-25" serif:id="rect10-7-0-2" transform="matrix(1,0,0,1,-282.47,220.55)">
                <rect x="335.126" y="113.97" width="26.846" height="26.846" style="fill:rgb(255,255,0);stroke:black;stroke-width:1.5px;"/>
            </g>
            <g id="rect10-6-3-95" serif:id="rect10-6-3-9" transform="matrix(1,0,0,1,-282.47,220.55)">
                <rect x="361.972" y="113.97" width="26.846" height="26.846" style="fill:rgb(255,255,0);stroke:black;stroke-width:1.5px;"/>
            </g>
            <g id="rect10-6-8-1-85" serif:id="rect10-6-8-1-8" transform="matrix(1,0,0,1,-282.47,220.55)">
                <rect x="308.279" y="113.97" width="26.846" height="26.846" style="fill:rgb(255,255,0);stroke:black;stroke-width:1.5px;"/>
            </g>
            <g id="rect10-63-1-4-45" serif:id="rect10-63-1-4-4" transform="matrix(1,0,0,1,-282.47,220.55)">
                <rect x="415.665" y="113.97" width="26.846" height="26.846" style="fill:rgb(0,255,0);stroke:black;stroke-width:1.5px;"/>
            </g>
            <g transform="matrix(0.935397,0,0,1.82533,-23.7848,-53.9783)">
                <path d="M201.307,210.632L201.307,200.337L264.353,200.337L264.353,190.776L293.054,205.484L264.353,220.192L264.353,210.632L201.307,210.632Z" style="fill:rgb(235,235,235);stroke:black;stroke-width:1.03px;stroke-linecap:round;stroke-linejoin:round;stroke-miterlimit:1.5;"/>
            </g>
            <g transform="matrix(1,0,0,1,-44.789,221.657)">
                <text x="211.466px" y="105.41px" style="font-family:'ArialMT', 'Arial', sans-serif;font-size:20px;">repairs</text>
            </g>
            <g transform="matrix(1.15236,0,0,0.998225,-17.5458,235.375)">
                <text x="60.568px" y="71.426px" style="font-family:'ArialMT', 'Arial', sans-serif;font-size:48px;fill:rgb(255,4,0);">x</text>
            </g>
            <g transform="matrix(1.15236,0,0,0.998225,-44.3923,289.068)">
                <text x="60.568px" y="71.426px" style="font-family:'ArialMT', 'Arial', sans-serif;font-size:48px;fill:rgb(255,4,0);">x</text>
            </g>
            <g transform="matrix(1.15236,0,0,0.998225,9.30062,289.068)">
                <text x="60.568px" y="71.426px" style="font-family:'ArialMT', 'Arial', sans-serif;font-size:48px;fill:rgb(255,4,0);">x</text>
            </g>
            <g transform="matrix(1,0,0,1,-40.1485,230.611)">
                <text x="45.212px" y="41.951px" style="font-family:'ArialMT', 'Arial', sans-serif;font-size:30px;fill:rgb(16,8,8);">cycle 3</text>
            </g>
            <g transform="matrix(1.15236,0,0,0.998225,268.617,262.222)">
                <text x="60.568px" y="71.426px" style="font-family:'ArialMT', 'Arial', sans-serif;font-size:48px;fill:rgb(255,4,0);">x</text>
            </g>
            <g transform="matrix(1.15236,0,0,0.998225,188.078,262.222)">
                <text x="60.568px" y="71.426px" style="font-family:'ArialMT', 'Arial', sans-serif;font-size:48px;fill:rgb(255,4,0);">x</text>
            </g>
            <g transform="matrix(1.15236,0,0,0.998225,214.924,262.222)">
                <text x="60.568px" y="71.426px" style="font-family:'ArialMT', 'Arial', sans-serif;font-size:48px;fill:rgb(255,4,0);">x</text>
            </g>
            <g transform="matrix(1.15236,0,0,0.998225,36.1471,262.222)">
                <text x="60.568px" y="71.426px" style="font-family:'ArialMT', 'Arial', sans-serif;font-size:48px;fill:rgb(255,4,0);">x</text>
            </g>
            <g transform="matrix(1.15236,0,0,0.998225,-44.3923,262.222)">
                <text x="60.568px" y="71.426px" style="font-family:'ArialMT', 'Arial', sans-serif;font-size:48px;fill:rgb(255,4,0);">x</text>
            </g>
            <g transform="matrix(1.15236,0,0,0.998225,-17.5458,262.222)">
                <text x="60.568px" y="71.426px" style="font-family:'ArialMT', 'Arial', sans-serif;font-size:48px;fill:rgb(255,4,0);">x</text>
            </g>
            <g transform="matrix(1.15236,0,0,0.998225,62.9935,235.375)">
                <text x="60.568px" y="71.426px" style="font-family:'ArialMT', 'Arial', sans-serif;font-size:48px;fill:rgb(255,4,0);">x</text>
            </g>
            <g transform="matrix(1.15236,0,0,0.998225,62.9935,262.222)">
                <text x="60.568px" y="71.426px" style="font-family:'ArialMT', 'Arial', sans-serif;font-size:48px;fill:rgb(255,4,0);">x</text>
            </g>
            <g transform="matrix(1.15236,0,0,0.998225,296.248,262.222)">
                <text x="60.568px" y="71.426px" style="font-family:'ArialMT', 'Arial', sans-serif;font-size:48px;fill:rgb(255,4,0);">x</text>
            </g>
        </g>
    </g>
</svg>
