<?xml version="1.0" encoding="UTF-8" standalone="no"?>
<!DOCTYPE svg PUBLIC "-//W3C//DTD SVG 1.1//EN" "http://www.w3.org/Graphics/SVG/1.1/DTD/svg11.dtd">
<svg width="100%" height="100%" viewBox="0 0 427 257" version="1.1" xmlns="http://www.w3.org/2000/svg"
     xml:space="preserve" xmlns:serif="http://www.serif.com/" style="fill-rule:evenodd;clip-rule:evenodd;">
    <g id="Layer-1" serif:id="Layer 1" transform="matrix(1,0,0,1,-32.91,-46.2367)">
        <rect id="rect10" x="62.006" y="75.229" width="56.693" height="56.693" style="fill:rgb(255,255,0);stroke:black;stroke-width:1.5px;"/>
        <rect id="rect10-8" x="118.699" y="75.229" width="56.693" height="56.693" style="fill:rgb(255,255,0);stroke:black;stroke-width:1.5px;"/>
        <rect id="rect10-0" x="62.006" y="131.922" width="56.693" height="56.693" style="fill:rgb(255,255,0);stroke:black;stroke-width:1.5px;"/>
        <rect id="rect10-6" x="118.699" y="131.922" width="56.693" height="56.693" style="fill:rgb(255,255,0);stroke:black;stroke-width:1.5px;"/>
        <rect id="rect10-5" x="175.392" y="75.229" width="56.693" height="56.693" style="fill:rgb(255,255,0);stroke:black;stroke-width:1.5px;"/>
        <rect id="rect10-3" x="175.392" y="131.922" width="56.693" height="56.693" style="fill:rgb(255,255,0);stroke:black;stroke-width:1.5px;"/>
        <rect id="rect10-63" x="232.085" y="75.229" width="56.693" height="56.693" style="fill:rgb(0,255,0);stroke:black;stroke-width:1.5px;"/>
        <rect id="rect10-63-4" x="288.778" y="75.229" width="56.693" height="56.693" style="fill:rgb(0,255,0);stroke:black;stroke-width:1.5px;"/>
        <rect id="rect10-63-6" x="345.471" y="75.229" width="56.693" height="56.693" style="fill:rgb(0,255,0);stroke:black;stroke-width:1.5px;"/>
        <rect id="rect10-63-40" x="402.164" y="75.229" width="56.693" height="56.693" style="fill:rgb(0,255,0);stroke:black;stroke-width:1.5px;"/>
        <rect id="rect10-63-7" x="232.085" y="131.922" width="56.693" height="56.693" style="fill:rgb(0,255,0);stroke:black;stroke-width:1.5px;"/>
        <rect id="rect10-63-4-2" x="288.778" y="131.922" width="56.693" height="56.693" style="fill:rgb(0,255,0);stroke:black;stroke-width:1.5px;"/>
        <rect id="rect10-63-6-9" x="345.471" y="131.922" width="56.693" height="56.693" style="fill:rgb(0,255,0);stroke:black;stroke-width:1.5px;"/>
        <rect id="rect10-63-40-7" x="402.164" y="131.922" width="56.693" height="56.693" style="fill:rgb(0,255,0);stroke:black;stroke-width:1.5px;"/>
        <rect id="rect10-63-40-3" x="62.006" y="188.614" width="56.693" height="56.693" style="fill:rgb(0,255,255);stroke:black;stroke-width:1.5px;"/>
        <rect id="rect10-63-40-7-0" x="62.006" y="245.307" width="56.693" height="56.693" style="fill:rgb(0,255,255);stroke:black;stroke-width:1.5px;"/>
        <rect id="rect10-63-40-5" x="118.699" y="188.614" width="56.693" height="56.693" style="fill:rgb(0,255,255);stroke:black;stroke-width:1.5px;"/>
        <rect id="rect10-63-40-7-4" x="118.699" y="245.307" width="56.693" height="56.693" style="fill:rgb(0,255,255);stroke:black;stroke-width:1.5px;"/>
        <rect id="rect10-63-40-2" x="175.392" y="188.614" width="56.693" height="56.693" style="fill:rgb(0,255,255);stroke:black;stroke-width:1.5px;"/>
        <rect id="rect10-63-40-7-45" x="175.392" y="245.307" width="56.693" height="56.693" style="fill:rgb(0,255,255);stroke:black;stroke-width:1.5px;"/>
        <g transform="matrix(6.83549,0,0,6.05255,-233.29,-480.387)">
            <text x="44.239px" y="100.707px" style="font-family:'ArialMT', 'Arial', sans-serif;font-size:12px;fill:rgb(166,166,166);fill-opacity:0.61;">d</text>
        </g>
        <g transform="matrix(6.83549,0,0,6.05255,-176.597,-480.387)">
            <text x="44.239px" y="100.707px" style="font-family:'ArialMT', 'Arial', sans-serif;font-size:12px;fill:rgb(166,166,166);fill-opacity:0.61;">d</text>
        </g>
        <g transform="matrix(6.83549,0,0,6.05255,-119.904,-480.387)">
            <text x="44.239px" y="100.707px" style="font-family:'ArialMT', 'Arial', sans-serif;font-size:12px;fill:rgb(166,166,166);fill-opacity:0.61;">d</text>
        </g>
        <g transform="matrix(6.83549,0,0,6.05255,-233.29,-423.694)">
            <text x="44.239px" y="100.707px" style="font-family:'ArialMT', 'Arial', sans-serif;font-size:12px;fill:rgb(166,166,166);fill-opacity:0.61;">d</text>
        </g>
        <g transform="matrix(6.83549,0,0,6.05255,-176.597,-423.694)">
            <text x="44.239px" y="100.707px" style="font-family:'ArialMT', 'Arial', sans-serif;font-size:12px;fill:rgb(166,166,166);fill-opacity:0.61;">d</text>
        </g>
        <g transform="matrix(6.83549,0,0,6.05255,-119.904,-423.694)">
            <text x="44.239px" y="100.707px" style="font-family:'ArialMT', 'Arial', sans-serif;font-size:12px;fill:rgb(166,166,166);fill-opacity:0.61;">d</text>
        </g>
        <g transform="matrix(9.50943,0,0,7.77673,-188.714,-654.85)">
            <text x="44.239px" y="100.707px" style="font-family:'ArialMT', 'Arial', sans-serif;font-size:12px;fill:rgb(166,166,166);fill-opacity:0.61;">r</text>
        </g>
        <g transform="matrix(3.92391,0,0,3.20894,84.8969,-194.844)">
            <text x="44.239px" y="100.707px" style="font-family:'ArialMT', 'Arial', sans-serif;font-size:12px;fill:rgb(166,166,166);fill-opacity:0.61;">h</text>
        </g>
        <g transform="matrix(9.50943,0,0,7.77673,-131.149,-654.85)">
            <text x="44.239px" y="100.707px" style="font-family:'ArialMT', 'Arial', sans-serif;font-size:12px;fill:rgb(166,166,166);fill-opacity:0.61;">r</text>
        </g>
        <g transform="matrix(3.92391,0,0,3.20894,142.462,-194.844)">
            <text x="44.239px" y="100.707px" style="font-family:'ArialMT', 'Arial', sans-serif;font-size:12px;fill:rgb(166,166,166);fill-opacity:0.61;">h</text>
        </g>
        <g transform="matrix(9.50943,0,0,7.77673,-188.714,-598.157)">
            <text x="44.239px" y="100.707px" style="font-family:'ArialMT', 'Arial', sans-serif;font-size:12px;fill:rgb(166,166,166);fill-opacity:0.61;">r</text>
        </g>
        <g transform="matrix(3.92391,0,0,3.20894,84.8969,-138.151)">
            <text x="44.239px" y="100.707px" style="font-family:'ArialMT', 'Arial', sans-serif;font-size:12px;fill:rgb(166,166,166);fill-opacity:0.61;">h</text>
        </g>
        <g transform="matrix(9.50943,0,0,7.77673,-132.021,-598.157)">
            <text x="44.239px" y="100.707px" style="font-family:'ArialMT', 'Arial', sans-serif;font-size:12px;fill:rgb(166,166,166);fill-opacity:0.61;">r</text>
        </g>
        <g transform="matrix(3.92391,0,0,3.20894,141.59,-138.151)">
            <text x="44.239px" y="100.707px" style="font-family:'ArialMT', 'Arial', sans-serif;font-size:12px;fill:rgb(166,166,166);fill-opacity:0.61;">h</text>
        </g>
        <g transform="matrix(9.28352,0,0,7.93388,-348.122,-556.79)">
            <text x="44.239px" y="100.707px" style="font-family:'ArialMT', 'Arial', sans-serif;font-size:12px;fill:rgb(166,166,166);fill-opacity:0.61;">r</text>
        </g>
        <g transform="matrix(3.8307,0,0,3.27379,-81.0118,-87.4885)">
            <text x="44.239px" y="100.707px" style="font-family:'ArialMT', 'Arial', sans-serif;font-size:12px;fill:rgb(166,166,166);fill-opacity:0.61;">v</text>
        </g>
        <g transform="matrix(9.28352,0,0,7.93388,-291.429,-556.79)">
            <text x="44.239px" y="100.707px" style="font-family:'ArialMT', 'Arial', sans-serif;font-size:12px;fill:rgb(166,166,166);fill-opacity:0.61;">r</text>
        </g>
        <g transform="matrix(3.8307,0,0,3.27379,-24.3189,-87.4885)">
            <text x="44.239px" y="100.707px" style="font-family:'ArialMT', 'Arial', sans-serif;font-size:12px;fill:rgb(166,166,166);fill-opacity:0.61;">v</text>
        </g>
        <g transform="matrix(9.28352,0,0,7.93388,-234.737,-556.79)">
            <text x="44.239px" y="100.707px" style="font-family:'ArialMT', 'Arial', sans-serif;font-size:12px;fill:rgb(166,166,166);fill-opacity:0.61;">r</text>
        </g>
        <g transform="matrix(3.8307,0,0,3.27379,32.3741,-87.4885)">
            <text x="44.239px" y="100.707px" style="font-family:'ArialMT', 'Arial', sans-serif;font-size:12px;fill:rgb(166,166,166);fill-opacity:0.61;">v</text>
        </g>
        <g transform="matrix(9.28352,0,0,7.93388,-348.122,-500.098)">
            <text x="44.239px" y="100.707px" style="font-family:'ArialMT', 'Arial', sans-serif;font-size:12px;fill:rgb(166,166,166);fill-opacity:0.61;">r</text>
        </g>
        <g transform="matrix(3.8307,0,0,3.27379,-81.0118,-30.7955)">
            <text x="44.239px" y="100.707px" style="font-family:'ArialMT', 'Arial', sans-serif;font-size:12px;fill:rgb(166,166,166);fill-opacity:0.61;">v</text>
        </g>
        <g transform="matrix(9.28352,0,0,7.93388,-291.429,-500.098)">
            <text x="44.239px" y="100.707px" style="font-family:'ArialMT', 'Arial', sans-serif;font-size:12px;fill:rgb(166,166,166);fill-opacity:0.61;">r</text>
        </g>
        <g transform="matrix(3.8307,0,0,3.27379,-24.3189,-30.7955)">
            <text x="44.239px" y="100.707px" style="font-family:'ArialMT', 'Arial', sans-serif;font-size:12px;fill:rgb(166,166,166);fill-opacity:0.61;">v</text>
        </g>
        <g transform="matrix(9.28352,0,0,7.93388,-234.737,-500.098)">
            <text x="44.239px" y="100.707px" style="font-family:'ArialMT', 'Arial', sans-serif;font-size:12px;fill:rgb(166,166,166);fill-opacity:0.61;">r</text>
        </g>
        <g transform="matrix(3.8307,0,0,3.27379,32.3741,-30.7955)">
            <text x="44.239px" y="100.707px" style="font-family:'ArialMT', 'Arial', sans-serif;font-size:12px;fill:rgb(166,166,166);fill-opacity:0.61;">v</text>
        </g>
        <g transform="matrix(9.50943,0,0,7.77673,-74.7137,-654.85)">
            <text x="44.239px" y="100.707px" style="font-family:'ArialMT', 'Arial', sans-serif;font-size:12px;fill:rgb(166,166,166);fill-opacity:0.61;">r</text>
        </g>
        <g transform="matrix(3.92391,0,0,3.20894,198.897,-194.844)">
            <text x="44.239px" y="100.707px" style="font-family:'ArialMT', 'Arial', sans-serif;font-size:12px;fill:rgb(166,166,166);fill-opacity:0.61;">h</text>
        </g>
        <g transform="matrix(9.50943,0,0,7.77673,-18.635,-654.85)">
            <text x="44.239px" y="100.707px" style="font-family:'ArialMT', 'Arial', sans-serif;font-size:12px;fill:rgb(166,166,166);fill-opacity:0.61;">r</text>
        </g>
        <g transform="matrix(3.92391,0,0,3.20894,254.976,-194.844)">
            <text x="44.239px" y="100.707px" style="font-family:'ArialMT', 'Arial', sans-serif;font-size:12px;fill:rgb(166,166,166);fill-opacity:0.61;">h</text>
        </g>
        <g transform="matrix(9.50943,0,0,7.77673,-75.3279,-598.157)">
            <text x="44.239px" y="100.707px" style="font-family:'ArialMT', 'Arial', sans-serif;font-size:12px;fill:rgb(166,166,166);fill-opacity:0.61;">r</text>
        </g>
        <g transform="matrix(3.92391,0,0,3.20894,198.283,-138.151)">
            <text x="44.239px" y="100.707px" style="font-family:'ArialMT', 'Arial', sans-serif;font-size:12px;fill:rgb(166,166,166);fill-opacity:0.61;">h</text>
        </g>
        <g transform="matrix(9.50943,0,0,7.77673,-18.635,-598.157)">
            <text x="44.239px" y="100.707px" style="font-family:'ArialMT', 'Arial', sans-serif;font-size:12px;fill:rgb(166,166,166);fill-opacity:0.61;">r</text>
        </g>
        <g transform="matrix(3.92391,0,0,3.20894,254.976,-138.151)">
            <text x="44.239px" y="100.707px" style="font-family:'ArialMT', 'Arial', sans-serif;font-size:12px;fill:rgb(166,166,166);fill-opacity:0.61;">h</text>
        </g>
        <g transform="matrix(0.000493074,-0.671055,1,0.000734774,33.969,322.262)">
            <path d="M36.547,20.75L36.547,24L29.096,19L36.547,14L36.547,17.25L191.724,17.25L191.724,14L199.175,19L191.724,24L191.724,20.75L36.547,20.75Z" style="fill:rgb(242,13,13);stroke:rgb(242,13,13);stroke-width:1.76px;stroke-linecap:round;stroke-linejoin:round;stroke-miterlimit:1.5;"/>
        </g>
    </g>
</svg>
