<?xml version="1.0" encoding="UTF-8" standalone="no"?>
<!DOCTYPE svg PUBLIC "-//W3C//DTD SVG 1.1//EN" "http://www.w3.org/Graphics/SVG/1.1/DTD/svg11.dtd">
<svg width="100%" height="100%" viewBox="0 0 1727 1348" version="1.1" xmlns="http://www.w3.org/2000/svg"
     xml:space="preserve" xmlns:serif="http://www.serif.com/" style="fill-rule:evenodd;clip-rule:evenodd;">
    <g id="Artboard1" transform="matrix(1.4464,0,0,1.02354,-31.8208,-139.201)">
        <rect x="22" y="136" width="1194" height="1317" style="fill:none;"/>
        <g id="rect10" transform="matrix(1.45216,0,0,1.96408,-50.294,556.618)">
            <rect x="62.006" y="75.229" width="56.693" height="56.693" style="fill:rgb(255,255,0);stroke:black;stroke-width:2.58px;"/>
        </g>
        <g id="rect10-8" transform="matrix(1.45216,0,0,1.96408,-50.294,556.618)">
            <rect x="118.699" y="75.229" width="56.693" height="56.693" style="fill:rgb(255,255,0);stroke:black;stroke-width:2.58px;"/>
        </g>
        <g id="rect10-0" transform="matrix(1.45216,0,0,1.96408,-50.294,556.618)">
            <rect x="62.006" y="131.922" width="56.693" height="56.693" style="fill:rgb(255,255,0);stroke:black;stroke-width:2.58px;"/>
        </g>
        <g id="rect10-6" transform="matrix(1.45216,0,0,1.96408,-50.294,556.618)">
            <rect x="118.699" y="131.922" width="56.693" height="56.693" style="fill:rgb(255,255,0);stroke:black;stroke-width:2.58px;"/>
        </g>
        <g id="rect10-5" transform="matrix(1.45216,0,0,1.96408,-50.294,556.618)">
            <rect x="175.392" y="75.229" width="56.693" height="56.693" style="fill:rgb(255,255,0);stroke:black;stroke-width:2.58px;"/>
        </g>
        <g id="rect10-3" transform="matrix(1.45216,0,0,1.96408,-50.294,556.618)">
            <rect x="175.392" y="131.922" width="56.693" height="56.693" style="fill:rgb(255,255,0);stroke:black;stroke-width:2.58px;"/>
        </g>
        <g id="rect10-63" transform="matrix(1.45216,0,0,1.96408,-50.294,556.618)">
            <rect x="232.085" y="75.229" width="56.693" height="56.693" style="fill:rgb(0,255,0);stroke:black;stroke-width:2.58px;"/>
        </g>
        <g id="rect10-63-4" transform="matrix(1.45216,0,0,1.96408,-50.294,556.618)">
            <rect x="288.778" y="75.229" width="56.693" height="56.693" style="fill:rgb(0,255,0);stroke:black;stroke-width:2.58px;"/>
        </g>
        <g id="rect10-63-6" transform="matrix(1.45216,0,0,1.96408,-50.294,556.618)">
            <rect x="345.471" y="75.229" width="56.693" height="56.693" style="fill:rgb(0,255,0);stroke:black;stroke-width:2.58px;"/>
        </g>
        <g id="rect10-63-40" transform="matrix(1.45216,0,0,1.96408,-50.294,556.618)">
            <rect x="402.164" y="75.229" width="56.693" height="56.693" style="fill:rgb(0,255,0);stroke:black;stroke-width:2.58px;"/>
        </g>
        <g id="rect10-63-7" transform="matrix(1.45216,0,0,1.96408,-50.294,556.618)">
            <rect x="232.085" y="131.922" width="56.693" height="56.693" style="fill:rgb(0,255,0);stroke:black;stroke-width:2.58px;"/>
        </g>
        <g id="rect10-63-4-2" transform="matrix(1.45216,0,0,1.96408,-50.294,556.618)">
            <rect x="288.778" y="131.922" width="56.693" height="56.693" style="fill:rgb(0,255,0);stroke:black;stroke-width:2.58px;"/>
        </g>
        <g id="rect10-63-6-9" transform="matrix(1.45216,0,0,1.96408,-50.294,556.618)">
            <rect x="345.471" y="131.922" width="56.693" height="56.693" style="fill:rgb(0,255,0);stroke:black;stroke-width:2.58px;"/>
        </g>
        <g id="rect10-63-40-7" transform="matrix(1.45216,0,0,1.96408,-50.294,556.618)">
            <rect x="402.164" y="131.922" width="56.693" height="56.693" style="fill:rgb(0,255,0);stroke:black;stroke-width:2.58px;"/>
        </g>
        <g id="rect10-63-40-3" transform="matrix(1.45216,0,0,1.96408,-50.294,556.618)">
            <rect x="62.006" y="188.614" width="56.693" height="56.693" style="fill:rgb(0,255,255);stroke:black;stroke-width:2.58px;"/>
        </g>
        <g id="rect10-63-40-7-0" transform="matrix(1.45216,0,0,1.96408,-50.294,556.618)">
            <rect x="62.006" y="245.307" width="56.693" height="56.693" style="fill:rgb(0,255,255);stroke:black;stroke-width:2.58px;"/>
        </g>
        <g id="rect10-63-40-5" transform="matrix(1.45216,0,0,1.96408,-50.294,556.618)">
            <rect x="118.699" y="188.614" width="56.693" height="56.693" style="fill:rgb(0,255,255);stroke:black;stroke-width:2.58px;"/>
        </g>
        <g id="rect10-63-40-7-4" transform="matrix(1.45216,0,0,1.96408,-50.294,556.618)">
            <rect x="118.699" y="245.307" width="56.693" height="56.693" style="fill:rgb(0,255,255);stroke:black;stroke-width:2.58px;"/>
        </g>
        <g id="rect10-63-40-2" transform="matrix(1.45216,0,0,1.96408,-50.294,556.618)">
            <rect x="175.392" y="188.614" width="56.693" height="56.693" style="fill:rgb(0,255,255);stroke:black;stroke-width:2.58px;"/>
        </g>
        <g id="rect10-63-40-7-45" transform="matrix(1.45216,0,0,1.96408,-50.294,556.618)">
            <rect x="175.392" y="245.307" width="56.693" height="56.693" style="fill:rgb(0,255,255);stroke:black;stroke-width:2.58px;"/>
        </g>
        <g transform="matrix(9.92621,0,0,11.8877,-389.068,-386.901)">
            <text x="44.239px" y="100.707px" style="font-family:'ArialMT', 'Arial', sans-serif;font-size:12px;fill:rgb(166,166,166);fill-opacity:0.61;">d</text>
        </g>
        <g transform="matrix(9.92621,0,0,11.8877,-306.741,-386.901)">
            <text x="44.239px" y="100.707px" style="font-family:'ArialMT', 'Arial', sans-serif;font-size:12px;fill:rgb(166,166,166);fill-opacity:0.61;">d</text>
        </g>
        <g transform="matrix(9.92621,0,0,11.8877,-224.414,-386.901)">
            <text x="44.239px" y="100.707px" style="font-family:'ArialMT', 'Arial', sans-serif;font-size:12px;fill:rgb(166,166,166);fill-opacity:0.61;">d</text>
        </g>
        <g transform="matrix(9.92621,0,0,11.8877,-389.068,-275.552)">
            <text x="44.239px" y="100.707px" style="font-family:'ArialMT', 'Arial', sans-serif;font-size:12px;fill:rgb(166,166,166);fill-opacity:0.61;">d</text>
        </g>
        <g transform="matrix(9.92621,0,0,11.8877,-306.741,-275.552)">
            <text x="44.239px" y="100.707px" style="font-family:'ArialMT', 'Arial', sans-serif;font-size:12px;fill:rgb(166,166,166);fill-opacity:0.61;">d</text>
        </g>
        <g transform="matrix(9.92621,0,0,11.8877,-224.414,-275.552)">
            <text x="44.239px" y="100.707px" style="font-family:'ArialMT', 'Arial', sans-serif;font-size:12px;fill:rgb(166,166,166);fill-opacity:0.61;">d</text>
        </g>
        <g transform="matrix(13.8092,0,0,15.2741,-324.336,-729.561)">
            <text x="44.239px" y="100.707px" style="font-family:'ArialMT', 'Arial', sans-serif;font-size:12px;fill:rgb(166,166,166);fill-opacity:0.61;">r</text>
        </g>
        <g transform="matrix(5.69813,0,0,6.30262,72.9896,173.928)">
            <text x="44.239px" y="100.707px" style="font-family:'ArialMT', 'Arial', sans-serif;font-size:12px;fill:rgb(166,166,166);fill-opacity:0.61;">h</text>
        </g>
        <g transform="matrix(13.8092,0,0,15.2741,-240.742,-729.561)">
            <text x="44.239px" y="100.707px" style="font-family:'ArialMT', 'Arial', sans-serif;font-size:12px;fill:rgb(166,166,166);fill-opacity:0.61;">r</text>
        </g>
        <g transform="matrix(5.69813,0,0,6.30262,156.583,173.928)">
            <text x="44.239px" y="100.707px" style="font-family:'ArialMT', 'Arial', sans-serif;font-size:12px;fill:rgb(166,166,166);fill-opacity:0.61;">h</text>
        </g>
        <g transform="matrix(13.8092,0,0,15.2741,-324.336,-618.212)">
            <text x="44.239px" y="100.707px" style="font-family:'ArialMT', 'Arial', sans-serif;font-size:12px;fill:rgb(166,166,166);fill-opacity:0.61;">r</text>
        </g>
        <g transform="matrix(5.69813,0,0,6.30262,72.9896,285.278)">
            <text x="44.239px" y="100.707px" style="font-family:'ArialMT', 'Arial', sans-serif;font-size:12px;fill:rgb(166,166,166);fill-opacity:0.61;">h</text>
        </g>
        <g transform="matrix(13.8092,0,0,15.2741,-242.009,-618.212)">
            <text x="44.239px" y="100.707px" style="font-family:'ArialMT', 'Arial', sans-serif;font-size:12px;fill:rgb(166,166,166);fill-opacity:0.61;">r</text>
        </g>
        <g transform="matrix(5.69813,0,0,6.30262,155.317,285.278)">
            <text x="44.239px" y="100.707px" style="font-family:'ArialMT', 'Arial', sans-serif;font-size:12px;fill:rgb(166,166,166);fill-opacity:0.61;">h</text>
        </g>
        <g transform="matrix(13.4811,0,0,15.5828,-555.822,-536.964)">
            <text x="44.239px" y="100.707px" style="font-family:'ArialMT', 'Arial', sans-serif;font-size:12px;fill:rgb(166,166,166);fill-opacity:0.61;">r</text>
        </g>
        <g transform="matrix(5.56277,0,0,6.42999,-167.936,384.783)">
            <text x="44.239px" y="100.707px" style="font-family:'ArialMT', 'Arial', sans-serif;font-size:12px;fill:rgb(166,166,166);fill-opacity:0.61;">v</text>
        </g>
        <g transform="matrix(13.4811,0,0,15.5828,-473.495,-536.964)">
            <text x="44.239px" y="100.707px" style="font-family:'ArialMT', 'Arial', sans-serif;font-size:12px;fill:rgb(166,166,166);fill-opacity:0.61;">r</text>
        </g>
        <g transform="matrix(5.56277,0,0,6.42999,-85.6087,384.783)">
            <text x="44.239px" y="100.707px" style="font-family:'ArialMT', 'Arial', sans-serif;font-size:12px;fill:rgb(166,166,166);fill-opacity:0.61;">v</text>
        </g>
        <g transform="matrix(13.4811,0,0,15.5828,-391.168,-536.964)">
            <text x="44.239px" y="100.707px" style="font-family:'ArialMT', 'Arial', sans-serif;font-size:12px;fill:rgb(166,166,166);fill-opacity:0.61;">r</text>
        </g>
        <g transform="matrix(5.56277,0,0,6.42999,-3.28179,384.783)">
            <text x="44.239px" y="100.707px" style="font-family:'ArialMT', 'Arial', sans-serif;font-size:12px;fill:rgb(166,166,166);fill-opacity:0.61;">v</text>
        </g>
        <g transform="matrix(13.4811,0,0,15.5828,-555.822,-425.615)">
            <text x="44.239px" y="100.707px" style="font-family:'ArialMT', 'Arial', sans-serif;font-size:12px;fill:rgb(166,166,166);fill-opacity:0.61;">r</text>
        </g>
        <g transform="matrix(5.56277,0,0,6.42999,-167.936,496.133)">
            <text x="44.239px" y="100.707px" style="font-family:'ArialMT', 'Arial', sans-serif;font-size:12px;fill:rgb(166,166,166);fill-opacity:0.61;">v</text>
        </g>
        <g transform="matrix(13.4811,0,0,15.5828,-473.495,-425.615)">
            <text x="44.239px" y="100.707px" style="font-family:'ArialMT', 'Arial', sans-serif;font-size:12px;fill:rgb(166,166,166);fill-opacity:0.61;">r</text>
        </g>
        <g transform="matrix(5.56277,0,0,6.42999,-85.6087,496.133)">
            <text x="44.239px" y="100.707px" style="font-family:'ArialMT', 'Arial', sans-serif;font-size:12px;fill:rgb(166,166,166);fill-opacity:0.61;">v</text>
        </g>
        <g transform="matrix(13.4811,0,0,15.5828,-391.168,-425.615)">
            <text x="44.239px" y="100.707px" style="font-family:'ArialMT', 'Arial', sans-serif;font-size:12px;fill:rgb(166,166,166);fill-opacity:0.61;">r</text>
        </g>
        <g transform="matrix(5.56277,0,0,6.42999,-3.28179,496.133)">
            <text x="44.239px" y="100.707px" style="font-family:'ArialMT', 'Arial', sans-serif;font-size:12px;fill:rgb(166,166,166);fill-opacity:0.61;">v</text>
        </g>
        <g id="rect10-63-40-7-01" serif:id="rect10-63-40-7-0" transform="matrix(1.45216,0,0,1.96408,-50.294,667.996)">
            <rect x="62.006" y="245.307" width="56.693" height="56.693" style="fill:rgb(0,255,255);stroke:black;stroke-width:2.58px;"/>
        </g>
        <g id="rect10-63-40-7-41" serif:id="rect10-63-40-7-4" transform="matrix(1.45216,0,0,1.96408,-50.294,667.996)">
            <rect x="118.699" y="245.307" width="56.693" height="56.693" style="fill:rgb(0,255,255);stroke:black;stroke-width:2.58px;"/>
        </g>
        <g id="rect10-63-40-7-451" serif:id="rect10-63-40-7-45" transform="matrix(1.45216,0,0,1.96408,-50.294,667.996)">
            <rect x="175.392" y="245.307" width="56.693" height="56.693" style="fill:rgb(0,255,255);stroke:black;stroke-width:2.58px;"/>
        </g>
        <g transform="matrix(13.4811,0,0,15.5828,-555.822,-314.236)">
            <text x="44.239px" y="100.707px" style="font-family:'ArialMT', 'Arial', sans-serif;font-size:12px;fill:rgb(166,166,166);fill-opacity:0.61;">r</text>
        </g>
        <g transform="matrix(5.56277,0,0,6.42999,-167.936,607.511)">
            <text x="44.239px" y="100.707px" style="font-family:'ArialMT', 'Arial', sans-serif;font-size:12px;fill:rgb(166,166,166);fill-opacity:0.61;">v</text>
        </g>
        <g transform="matrix(13.4811,0,0,15.5828,-473.495,-314.236)">
            <text x="44.239px" y="100.707px" style="font-family:'ArialMT', 'Arial', sans-serif;font-size:12px;fill:rgb(166,166,166);fill-opacity:0.61;">r</text>
        </g>
        <g transform="matrix(5.56277,0,0,6.42999,-85.6087,607.511)">
            <text x="44.239px" y="100.707px" style="font-family:'ArialMT', 'Arial', sans-serif;font-size:12px;fill:rgb(166,166,166);fill-opacity:0.61;">v</text>
        </g>
        <g transform="matrix(13.4811,0,0,15.5828,-391.168,-314.236)">
            <text x="44.239px" y="100.707px" style="font-family:'ArialMT', 'Arial', sans-serif;font-size:12px;fill:rgb(166,166,166);fill-opacity:0.61;">r</text>
        </g>
        <g transform="matrix(5.56277,0,0,6.42999,-3.28179,607.511)">
            <text x="44.239px" y="100.707px" style="font-family:'ArialMT', 'Arial', sans-serif;font-size:12px;fill:rgb(166,166,166);fill-opacity:0.61;">v</text>
        </g>
        <g transform="matrix(13.8092,0,0,15.2741,-158.79,-729.561)">
            <text x="44.239px" y="100.707px" style="font-family:'ArialMT', 'Arial', sans-serif;font-size:12px;fill:rgb(166,166,166);fill-opacity:0.61;">r</text>
        </g>
        <g transform="matrix(5.69813,0,0,6.30262,238.535,173.928)">
            <text x="44.239px" y="100.707px" style="font-family:'ArialMT', 'Arial', sans-serif;font-size:12px;fill:rgb(166,166,166);fill-opacity:0.61;">h</text>
        </g>
        <g transform="matrix(13.8092,0,0,15.2741,-77.3549,-729.561)">
            <text x="44.239px" y="100.707px" style="font-family:'ArialMT', 'Arial', sans-serif;font-size:12px;fill:rgb(166,166,166);fill-opacity:0.61;">r</text>
        </g>
        <g transform="matrix(5.69813,0,0,6.30262,319.97,173.928)">
            <text x="44.239px" y="100.707px" style="font-family:'ArialMT', 'Arial', sans-serif;font-size:12px;fill:rgb(166,166,166);fill-opacity:0.61;">h</text>
        </g>
        <g transform="matrix(13.8092,0,0,15.2741,-159.682,-618.212)">
            <text x="44.239px" y="100.707px" style="font-family:'ArialMT', 'Arial', sans-serif;font-size:12px;fill:rgb(166,166,166);fill-opacity:0.61;">r</text>
        </g>
        <g transform="matrix(5.69813,0,0,6.30262,237.643,285.278)">
            <text x="44.239px" y="100.707px" style="font-family:'ArialMT', 'Arial', sans-serif;font-size:12px;fill:rgb(166,166,166);fill-opacity:0.61;">h</text>
        </g>
        <g transform="matrix(13.8092,0,0,15.2741,-77.3549,-618.212)">
            <text x="44.239px" y="100.707px" style="font-family:'ArialMT', 'Arial', sans-serif;font-size:12px;fill:rgb(166,166,166);fill-opacity:0.61;">r</text>
        </g>
        <g transform="matrix(5.69813,0,0,6.30262,319.97,285.278)">
            <text x="44.239px" y="100.707px" style="font-family:'ArialMT', 'Arial', sans-serif;font-size:12px;fill:rgb(166,166,166);fill-opacity:0.61;">h</text>
        </g>
        <g transform="matrix(4.6636,0,0,6.59031,-368.712,138.003)">
            <text x="87.351px" y="13.945px" style="font-family:'ArialMT', 'Arial', sans-serif;font-size:13.589px;">healed when threshold ≤ 3</text>
        </g>
        <g transform="matrix(3.33463,0,0,4.63839,-253.439,1278.79)">
            <text x="87.351px" y="13.945px" style="font-family:'ArialMT', 'Arial', sans-serif;font-size:15.798px;">here, if t  ≤ 3 all rows repaired on ﬁrst pass,</text>
            <text x="87.351px" y="30.259px" style="font-family:'ArialMT', 'Arial', sans-serif;font-size:15.798px;">and if t  &gt; 1 no columns will be repaired this cycle</text>
        </g>
        <g transform="matrix(7.7826,0,0,10.9979,-640.66,328.569)">
            <text x="87.351px" y="13.945px" style="font-family:'ArialMT', 'Arial', sans-serif;font-size:8.143px;">for Generalized Pyramid codes:</text>
        </g>
        <g transform="matrix(9.374,0,0,12.7696,-780.648,393.57)">
            <g transform="matrix(0.963979,0,0,1,3.14652,0)">
                <text x="87.351px" y="13.945px" style="font-family:'ArialMT', 'Arial', sans-serif;font-size:5.738px;">1. rows healed ﬁrst, if faults ≤ horizontal threshold</text>
            </g>
            <g transform="matrix(0.963979,0,0,1,3.14652,0)">
                <text x="87.351px" y="19.871px" style="font-family:'ArialMT', 'Arial', sans-serif;font-size:5.738px;">2. columns healed next, if faults ≤ vertical threshold</text>
            </g>
        </g>
        <g id="rect101" serif:id="rect10" transform="matrix(2.88072,0,0,4.07085,-212.155,-26.5655)">
            <rect x="88.624" y="74.106" width="26.846" height="26.846" style="fill:rgb(255,255,0);stroke:black;stroke-width:1.5px;"/>
        </g>
        <g id="rect10-631" serif:id="rect10-63" transform="matrix(2.88072,0,0,4.07085,-212.155,-26.5655)">
            <rect x="222.856" y="74.106" width="26.846" height="26.846" style="fill:rgb(0,255,0);stroke:black;stroke-width:1.5px;"/>
        </g>
        <g id="rect10-51" serif:id="rect10-5" transform="matrix(2.88072,0,0,4.07085,-212.155,-26.5655)">
            <rect x="115.47" y="74.106" width="26.846" height="26.846" style="fill:rgb(255,255,0);stroke:black;stroke-width:1.5px;"/>
        </g>
        <g id="rect10-81" serif:id="rect10-8" transform="matrix(2.88072,0,0,4.07085,-212.155,-26.5655)">
            <rect x="142.317" y="74.106" width="26.846" height="26.846" style="fill:rgb(255,255,0);stroke:black;stroke-width:1.5px;"/>
        </g>
        <g id="rect10-7" transform="matrix(2.88072,0,0,4.07085,-212.155,-26.5655)">
            <rect x="169.163" y="74.106" width="26.846" height="26.846" style="fill:rgb(255,255,0);stroke:black;stroke-width:1.5px;"/>
        </g>
        <g id="rect10-61" serif:id="rect10-6" transform="matrix(2.88072,0,0,4.07085,-212.155,-26.5655)">
            <rect x="196.01" y="74.106" width="26.846" height="26.846" style="fill:rgb(255,255,0);stroke:black;stroke-width:1.5px;"/>
        </g>
        <g id="rect10-63-1" transform="matrix(2.88072,0,0,4.07085,-212.155,-26.5655)">
            <rect x="249.703" y="74.106" width="26.846" height="26.846" style="fill:rgb(0,255,0);stroke:black;stroke-width:1.5px;"/>
        </g>
        <g id="rect10-63-8" transform="matrix(2.88072,0,0,4.07085,-212.155,-26.5655)">
            <rect x="276.549" y="74.106" width="26.846" height="26.846" style="fill:rgb(0,255,0);stroke:black;stroke-width:1.5px;"/>
        </g>
        <g id="rect10-63-9" transform="matrix(2.88072,0,0,4.07085,-212.155,-26.5655)">
            <rect x="303.396" y="74.106" width="26.846" height="26.846" style="fill:rgb(0,255,0);stroke:black;stroke-width:1.5px;"/>
        </g>
        <g id="rect10-63-5" transform="matrix(2.88072,0,0,4.07085,-212.155,-26.5655)">
            <rect x="330.242" y="74.106" width="26.846" height="26.846" style="fill:rgb(0,255,0);stroke:black;stroke-width:1.5px;"/>
        </g>
        <g transform="matrix(10.4736,0,0,13.1054,288.637,-948.351)">
            <text x="44.239px" y="100.707px" style="font-family:'ArialMT', 'Arial', sans-serif;font-size:12px;fill:rgb(166,166,166);fill-opacity:0.61;">r</text>
        </g>
        <g transform="matrix(8.93983,0,0,11.1862,-32.1159,-749.513)">
            <text x="44.239px" y="100.707px" style="font-family:'ArialMT', 'Arial', sans-serif;font-size:12px;fill:rgb(166,166,166);fill-opacity:0.61;">d</text>
        </g>
        <g transform="matrix(8.93983,0,0,11.1862,-109.453,-749.513)">
            <text x="44.239px" y="100.707px" style="font-family:'ArialMT', 'Arial', sans-serif;font-size:12px;fill:rgb(166,166,166);fill-opacity:0.61;">d</text>
        </g>
        <g transform="matrix(8.93983,0,0,11.1862,-186.79,-749.513)">
            <text x="44.239px" y="100.707px" style="font-family:'ArialMT', 'Arial', sans-serif;font-size:12px;fill:rgb(166,166,166);fill-opacity:0.61;">d</text>
        </g>
        <g transform="matrix(8.93983,0,0,11.1862,-264.127,-749.513)">
            <text x="44.239px" y="100.707px" style="font-family:'ArialMT', 'Arial', sans-serif;font-size:12px;fill:rgb(166,166,166);fill-opacity:0.61;">d</text>
        </g>
        <g transform="matrix(8.93983,0,0,11.1862,-341.464,-749.513)">
            <text x="44.239px" y="100.707px" style="font-family:'ArialMT', 'Arial', sans-serif;font-size:12px;fill:rgb(166,166,166);fill-opacity:0.61;">d</text>
        </g>
        <g transform="matrix(10.4736,0,0,13.1054,-20.7117,-948.351)">
            <text x="44.239px" y="100.707px" style="font-family:'ArialMT', 'Arial', sans-serif;font-size:12px;fill:rgb(166,166,166);fill-opacity:0.61;">r</text>
        </g>
        <g transform="matrix(10.4736,0,0,13.1054,56.6254,-948.351)">
            <text x="44.239px" y="100.707px" style="font-family:'ArialMT', 'Arial', sans-serif;font-size:12px;fill:rgb(166,166,166);fill-opacity:0.61;">r</text>
        </g>
        <g transform="matrix(10.4736,0,0,13.1054,137.728,-948.351)">
            <text x="44.239px" y="100.707px" style="font-family:'ArialMT', 'Arial', sans-serif;font-size:12px;fill:rgb(166,166,166);fill-opacity:0.61;">r</text>
        </g>
        <g transform="matrix(10.4736,0,0,13.1054,215.065,-948.351)">
            <text x="44.239px" y="100.707px" style="font-family:'ArialMT', 'Arial', sans-serif;font-size:12px;fill:rgb(166,166,166);fill-opacity:0.61;">r</text>
        </g>
        <g transform="matrix(3.31962,0,0,4.06362,196.653,380.325)">
            <text x="0px" y="0px" style="font-family:'ArialMT', 'Arial', sans-serif;font-size:48px;fill:rgb(255,4,0);">x</text>
        </g>
        <g transform="matrix(3.31962,0,0,4.06362,273.99,380.325)">
            <text x="0px" y="0px" style="font-family:'ArialMT', 'Arial', sans-serif;font-size:48px;fill:rgb(255,4,0);">x</text>
        </g>
        <g transform="matrix(3.31962,0,0,4.06362,506.001,380.325)">
            <text x="0px" y="0px" style="font-family:'ArialMT', 'Arial', sans-serif;font-size:48px;fill:rgb(255,4,0);">x</text>
        </g>
        <g transform="matrix(3.31962,0,0,4.06362,208.226,810.268)">
            <text x="0px" y="0px" style="font-family:'ArialMT', 'Arial', sans-serif;font-size:48px;fill:rgb(255,4,0);">x</text>
        </g>
        <g transform="matrix(3.31962,0,0,4.06362,373.335,810.621)">
            <text x="0px" y="0px" style="font-family:'ArialMT', 'Arial', sans-serif;font-size:48px;fill:rgb(255,4,0);">x</text>
        </g>
        <g transform="matrix(3.31962,0,0,4.06362,536.722,810.621)">
            <text x="0px" y="0px" style="font-family:'ArialMT', 'Arial', sans-serif;font-size:48px;fill:rgb(255,4,0);">x</text>
        </g>
        <g transform="matrix(3.31962,0,0,4.06362,123.404,921.618)">
            <text x="0px" y="0px" style="font-family:'ArialMT', 'Arial', sans-serif;font-size:48px;fill:rgb(255,4,0);">x</text>
        </g>
        <g transform="matrix(3.31962,0,0,4.06362,123.404,1145.66)">
            <text x="0px" y="0px" style="font-family:'ArialMT', 'Arial', sans-serif;font-size:48px;fill:rgb(255,4,0);">x</text>
        </g>
        <g transform="matrix(3.31962,0,0,4.06362,39.1676,1032.33)">
            <text x="0px" y="0px" style="font-family:'ArialMT', 'Arial', sans-serif;font-size:48px;fill:rgb(255,4,0);">x</text>
        </g>
        <g transform="matrix(3.31962,0,0,4.06362,205.788,1033.32)">
            <text x="0px" y="0px" style="font-family:'ArialMT', 'Arial', sans-serif;font-size:48px;fill:rgb(255,4,0);">x</text>
        </g>
        <g transform="matrix(3.31962,0,0,4.06362,454.395,919.994)">
            <text x="0px" y="0px" style="font-family:'ArialMT', 'Arial', sans-serif;font-size:48px;fill:rgb(255,4,0);">x</text>
        </g>
        <g transform="matrix(0.780807,0,0,0.977003,7.78991,-30.1821)">
            <text x="242.731px" y="1493.44px" style="font-family:'ArialMT', 'Arial', sans-serif;font-size:50px;">v</text>
        </g>
        <g transform="matrix(1.34178,0,0,1.67894,-186.895,-1123.07)">
            <text x="310.123px" y="1475.3px" style="font-family:'ArialMT', 'Arial', sans-serif;font-size:29.167px;">h</text>
        </g>
    </g>
</svg>
