<?xml version="1.0" encoding="UTF-8" standalone="no"?>
<!DOCTYPE svg PUBLIC "-//W3C//DTD SVG 1.1//EN" "http://www.w3.org/Graphics/SVG/1.1/DTD/svg11.dtd">
<svg width="100%" height="100%" viewBox="0 0 277 143" version="1.1" xmlns="http://www.w3.org/2000/svg"
     xml:space="preserve" xmlns:serif="http://www.serif.com/" style="fill-rule:evenodd;clip-rule:evenodd;">
    <g id="Layer-1" serif:id="Layer 1" transform="matrix(1,0,0,1,-85.0394,-40.7233)">
        <rect id="rect10-1" x="88.624" y="150.292" width="26.846" height="26.846" style="fill:rgb(255,255,0);stroke:black;stroke-width:1.5px;"/>
        <rect id="rect10-63-2" x="222.856" y="150.292" width="26.846" height="26.846" style="fill:rgb(0,255,0);stroke:black;stroke-width:1.5px;"/>
        <rect id="rect10-5-7" x="115.47" y="150.292" width="26.846" height="26.846" style="fill:rgb(255,255,0);stroke:black;stroke-width:1.5px;"/>
        <rect id="rect10-8-5" x="142.317" y="150.292" width="26.846" height="26.846" style="fill:rgb(255,255,0);stroke:black;stroke-width:1.5px;"/>
        <rect id="rect10-7-5" x="169.163" y="150.292" width="26.846" height="26.846" style="fill:rgb(255,255,0);stroke:black;stroke-width:1.5px;"/>
        <rect id="rect10-6-0" x="196.01" y="150.292" width="26.846" height="26.846" style="fill:rgb(255,255,0);stroke:black;stroke-width:1.5px;"/>
        <rect id="rect10-63-1-5" x="249.703" y="150.292" width="26.846" height="26.846" style="fill:rgb(0,255,0);stroke:black;stroke-width:1.5px;"/>
        <rect id="rect10-63-8-2" x="276.549" y="150.292" width="26.846" height="26.846" style="fill:rgb(0,255,0);stroke:black;stroke-width:1.5px;"/>
        <rect id="rect10-63-9-0" x="303.396" y="150.292" width="26.846" height="26.846" style="fill:rgb(0,255,0);stroke:black;stroke-width:1.5px;"/>
        <rect id="rect10-63-5-7" x="330.242" y="150.292" width="26.846" height="26.846" style="fill:rgb(0,255,0);stroke:black;stroke-width:1.5px;"/>
        <g transform="matrix(3.10334,0,0,2.74788,-44.8877,-101.405)">
            <text x="44.239px" y="100.707px" style="font-family:'ArialMT', 'Arial', sans-serif;font-size:12px;fill:rgb(166,166,166);fill-opacity:0.61;">d</text>
        </g>
        <g transform="matrix(3.10334,0,0,2.74788,-18.0412,-101.405)">
            <text x="44.239px" y="100.707px" style="font-family:'ArialMT', 'Arial', sans-serif;font-size:12px;fill:rgb(166,166,166);fill-opacity:0.61;">d</text>
        </g>
        <g transform="matrix(3.10334,0,0,2.74788,8.80523,-101.405)">
            <text x="44.239px" y="100.707px" style="font-family:'ArialMT', 'Arial', sans-serif;font-size:12px;fill:rgb(166,166,166);fill-opacity:0.61;">d</text>
        </g>
        <g transform="matrix(3.10334,0,0,2.74788,35.6517,-101.405)">
            <text x="44.239px" y="100.707px" style="font-family:'ArialMT', 'Arial', sans-serif;font-size:12px;fill:rgb(166,166,166);fill-opacity:0.61;">d</text>
        </g>
        <g transform="matrix(3.10334,0,0,2.74788,62.4981,-101.405)">
            <text x="44.239px" y="100.707px" style="font-family:'ArialMT', 'Arial', sans-serif;font-size:12px;fill:rgb(166,166,166);fill-opacity:0.61;">d</text>
        </g>
        <g transform="matrix(3.63578,0,0,3.21933,66.4569,-149.436)">
            <text x="44.239px" y="100.707px" style="font-family:'ArialMT', 'Arial', sans-serif;font-size:12px;fill:rgb(166,166,166);fill-opacity:0.61;">r</text>
        </g>
        <g transform="matrix(3.63578,0,0,3.21933,93.3034,-149.436)">
            <text x="44.239px" y="100.707px" style="font-family:'ArialMT', 'Arial', sans-serif;font-size:12px;fill:rgb(166,166,166);fill-opacity:0.61;">r</text>
        </g>
        <g transform="matrix(3.63578,0,0,3.21933,120.15,-149.436)">
            <text x="44.239px" y="100.707px" style="font-family:'ArialMT', 'Arial', sans-serif;font-size:12px;fill:rgb(166,166,166);fill-opacity:0.61;">r</text>
        </g>
        <g transform="matrix(3.63578,0,0,3.21933,146.996,-149.436)">
            <text x="44.239px" y="100.707px" style="font-family:'ArialMT', 'Arial', sans-serif;font-size:12px;fill:rgb(166,166,166);fill-opacity:0.61;">r</text>
        </g>
        <g transform="matrix(3.63578,0,0,3.21933,173.843,-149.436)">
            <text x="44.239px" y="100.707px" style="font-family:'ArialMT', 'Arial', sans-serif;font-size:12px;fill:rgb(166,166,166);fill-opacity:0.61;">r</text>
        </g>
        <rect id="rect10" x="88.624" y="74.106" width="26.846" height="26.846" style="fill:rgb(255,255,0);stroke:black;stroke-width:1.5px;"/>
        <rect id="rect10-63" x="222.856" y="74.106" width="26.846" height="26.846" style="fill:rgb(0,255,0);stroke:black;stroke-width:1.5px;"/>
        <rect id="rect10-5" x="115.47" y="74.106" width="26.846" height="26.846" style="fill:rgb(255,255,0);stroke:black;stroke-width:1.5px;"/>
        <rect id="rect10-8" x="142.317" y="74.106" width="26.846" height="26.846" style="fill:rgb(255,255,0);stroke:black;stroke-width:1.5px;"/>
        <rect id="rect10-7" x="169.163" y="74.106" width="26.846" height="26.846" style="fill:rgb(255,255,0);stroke:black;stroke-width:1.5px;"/>
        <rect id="rect10-6" x="196.01" y="74.106" width="26.846" height="26.846" style="fill:rgb(255,255,0);stroke:black;stroke-width:1.5px;"/>
        <rect id="rect10-63-1" x="249.703" y="74.106" width="26.846" height="26.846" style="fill:rgb(0,255,0);stroke:black;stroke-width:1.5px;"/>
        <rect id="rect10-63-8" x="276.549" y="74.106" width="26.846" height="26.846" style="fill:rgb(0,255,0);stroke:black;stroke-width:1.5px;"/>
        <rect id="rect10-63-9" x="303.396" y="74.106" width="26.846" height="26.846" style="fill:rgb(0,255,0);stroke:black;stroke-width:1.5px;"/>
        <rect id="rect10-63-5" x="330.242" y="74.106" width="26.846" height="26.846" style="fill:rgb(0,255,0);stroke:black;stroke-width:1.5px;"/>
        <g transform="matrix(3.63578,0,0,3.21933,173.843,-226.436)">
            <text x="44.239px" y="100.707px" style="font-family:'ArialMT', 'Arial', sans-serif;font-size:12px;fill:rgb(166,166,166);fill-opacity:0.61;">r</text>
        </g>
        <g transform="matrix(3.10334,0,0,2.74788,62.4981,-177.591)">
            <text x="44.239px" y="100.707px" style="font-family:'ArialMT', 'Arial', sans-serif;font-size:12px;fill:rgb(166,166,166);fill-opacity:0.61;">d</text>
        </g>
        <g transform="matrix(3.10334,0,0,2.74788,35.6517,-177.591)">
            <text x="44.239px" y="100.707px" style="font-family:'ArialMT', 'Arial', sans-serif;font-size:12px;fill:rgb(166,166,166);fill-opacity:0.61;">d</text>
        </g>
        <g transform="matrix(3.10334,0,0,2.74788,8.80525,-177.591)">
            <text x="44.239px" y="100.707px" style="font-family:'ArialMT', 'Arial', sans-serif;font-size:12px;fill:rgb(166,166,166);fill-opacity:0.61;">d</text>
        </g>
        <g transform="matrix(3.10334,0,0,2.74788,-18.0412,-177.591)">
            <text x="44.239px" y="100.707px" style="font-family:'ArialMT', 'Arial', sans-serif;font-size:12px;fill:rgb(166,166,166);fill-opacity:0.61;">d</text>
        </g>
        <g transform="matrix(3.10334,0,0,2.74788,-44.8877,-177.591)">
            <text x="44.239px" y="100.707px" style="font-family:'ArialMT', 'Arial', sans-serif;font-size:12px;fill:rgb(166,166,166);fill-opacity:0.61;">d</text>
        </g>
        <g transform="matrix(3.63578,0,0,3.21933,66.4569,-226.436)">
            <text x="44.239px" y="100.707px" style="font-family:'ArialMT', 'Arial', sans-serif;font-size:12px;fill:rgb(166,166,166);fill-opacity:0.61;">r</text>
        </g>
        <g transform="matrix(3.63578,0,0,3.21933,93.3034,-226.436)">
            <text x="44.239px" y="100.707px" style="font-family:'ArialMT', 'Arial', sans-serif;font-size:12px;fill:rgb(166,166,166);fill-opacity:0.61;">r</text>
        </g>
        <g transform="matrix(3.63578,0,0,3.21933,121.457,-226.436)">
            <text x="44.239px" y="100.707px" style="font-family:'ArialMT', 'Arial', sans-serif;font-size:12px;fill:rgb(166,166,166);fill-opacity:0.61;">r</text>
        </g>
        <g transform="matrix(3.63578,0,0,3.21933,148.303,-226.436)">
            <text x="44.239px" y="100.707px" style="font-family:'ArialMT', 'Arial', sans-serif;font-size:12px;fill:rgb(166,166,166);fill-opacity:0.61;">r</text>
        </g>
        <g transform="matrix(1,0,0,1,87.1825,65.8088)">
            <g id="text3067">
                <text x="0px" y="0px" style="font-family:'LucidaGrande', 'Lucida Grande', sans-serif;font-weight:500;font-size:30px;">p_error = 0.1</text>
            </g>
        </g>
        <g transform="matrix(1,0,0,1,87.1825,141.995)">
            <g id="text3067-4">
                <text x="0px" y="0px" style="font-family:'LucidaGrande', 'Lucida Grande', sans-serif;font-weight:500;font-size:30px;">p_error = 0.5</text>
            </g>
        </g>
        <g transform="matrix(1.15236,0,0,0.998225,141.912,176.139)">
            <text x="0px" y="0px" style="font-family:'ArialMT', 'Arial', sans-serif;font-size:48px;fill:rgb(255,4,0);">x</text>
        </g>
        <g transform="matrix(1.15236,0,0,0.998225,222.451,176.139)">
            <text x="0px" y="0px" style="font-family:'ArialMT', 'Arial', sans-serif;font-size:48px;fill:rgb(255,4,0);">x</text>
        </g>
        <g transform="matrix(1.15236,0,0,0.998225,249.298,176.139)">
            <text x="0px" y="0px" style="font-family:'ArialMT', 'Arial', sans-serif;font-size:48px;fill:rgb(255,4,0);">x</text>
        </g>
        <g transform="matrix(1.15236,0,0,0.998225,329.837,176.139)">
            <text x="0px" y="0px" style="font-family:'ArialMT', 'Arial', sans-serif;font-size:48px;fill:rgb(255,4,0);">x</text>
        </g>
        <g transform="matrix(1.15236,0,0,0.998225,141.912,99.9524)">
            <text x="0px" y="0px" style="font-family:'ArialMT', 'Arial', sans-serif;font-size:48px;fill:rgb(255,4,0);">x</text>
        </g>
        <g transform="matrix(1.15236,0,0,0.998225,168.758,176.139)">
            <text x="0px" y="0px" style="font-family:'ArialMT', 'Arial', sans-serif;font-size:48px;fill:rgb(255,4,0);">x</text>
        </g>
    </g>
</svg>
