<?xml version="1.0" encoding="UTF-8" standalone="no"?>
<!DOCTYPE svg PUBLIC "-//W3C//DTD SVG 1.1//EN" "http://www.w3.org/Graphics/SVG/1.1/DTD/svg11.dtd">
<svg width="100%" height="100%" viewBox="0 0 237 137" version="1.1" xmlns="http://www.w3.org/2000/svg"
     xml:space="preserve" xmlns:serif="http://www.serif.com/" style="fill-rule:evenodd;clip-rule:evenodd;">
    <g id="Artboard1" transform="matrix(0.843416,0,0,3.34146,0,-83.5366)">
        <rect x="0" y="25" width="281" height="41" style="fill:none;"/>
        <g id="Layer-1" serif:id="Layer 1" transform="matrix(1.18565,0,0,0.29927,-100.827,5.92953)">
            <g id="rect10" transform="matrix(1.26819,0,0,1.33524,2.23176,-3.84324)">
                <rect x="88.624" y="74.106" width="26.846" height="26.846" style="fill:rgb(255,255,0);stroke:black;stroke-width:1.5px;"/>
            </g>
            <g id="rect10-63" transform="matrix(1.26819,0,0,1.33524,-65.8611,-3.84324)">
                <rect x="222.856" y="74.106" width="26.846" height="26.846" style="fill:rgb(0,255,0);stroke:black;stroke-width:1.5px;"/>
            </g>
            <g id="rect10-5" transform="matrix(1.26819,0,0,1.33524,2.23176,-3.84324)">
                <rect x="115.47" y="74.106" width="26.846" height="26.846" style="fill:rgb(255,255,0);stroke:black;stroke-width:1.5px;"/>
            </g>
            <g id="rect10-8" transform="matrix(1.26819,0,0,1.33524,2.23176,-3.84324)">
                <rect x="142.317" y="74.106" width="26.846" height="26.846" style="fill:rgb(255,255,0);stroke:black;stroke-width:1.5px;"/>
            </g>
            <g id="rect10-63-1" transform="matrix(1.26819,0,0,1.33524,-65.8611,-3.84324)">
                <rect x="249.703" y="74.106" width="26.846" height="26.846" style="fill:rgb(0,255,0);stroke:black;stroke-width:1.5px;"/>
            </g>
            <g transform="matrix(3.93562,0,0,3.66907,13.3985,-240.97)">
                <text x="44.239px" y="100.707px" style="font-family:'ArialMT', 'Arial', sans-serif;font-size:12px;fill:rgb(166,166,166);fill-opacity:0.61;">d</text>
            </g>
            <g transform="matrix(3.93562,0,0,3.66907,-20.648,-240.97)">
                <text x="44.239px" y="100.707px" style="font-family:'ArialMT', 'Arial', sans-serif;font-size:12px;fill:rgb(166,166,166);fill-opacity:0.61;">d</text>
            </g>
            <g transform="matrix(3.93562,0,0,3.66907,-54.6944,-240.97)">
                <text x="44.239px" y="100.707px" style="font-family:'ArialMT', 'Arial', sans-serif;font-size:12px;fill:rgb(166,166,166);fill-opacity:0.61;">d</text>
            </g>
            <g transform="matrix(4.61086,0,0,4.29858,18.419,-306.19)">
                <text x="44.239px" y="100.707px" style="font-family:'ArialMT', 'Arial', sans-serif;font-size:12px;fill:rgb(166,166,166);fill-opacity:0.61;">r</text>
            </g>
            <g transform="matrix(4.61086,0,0,4.29858,52.4655,-306.19)">
                <text x="44.239px" y="100.707px" style="font-family:'ArialMT', 'Arial', sans-serif;font-size:12px;fill:rgb(166,166,166);fill-opacity:0.61;">r</text>
            </g>
            <g id="rect101" serif:id="rect10" transform="matrix(1.26819,0,0,1.33524,2.23176,-3.84324)">
                <rect x="88.624" y="74.106" width="26.846" height="26.846" style="fill:rgb(255,255,0);stroke:black;stroke-width:1.5px;"/>
            </g>
            <g id="rect10-631" serif:id="rect10-63" transform="matrix(1.26819,0,0,1.33524,-65.8611,-3.84324)">
                <rect x="222.856" y="74.106" width="26.846" height="26.846" style="fill:rgb(0,255,0);stroke:black;stroke-width:1.5px;"/>
            </g>
            <g id="rect10-51" serif:id="rect10-5" transform="matrix(1.26819,0,0,1.33524,2.23176,-3.84324)">
                <rect x="115.47" y="74.106" width="26.846" height="26.846" style="fill:rgb(255,255,0);stroke:black;stroke-width:1.5px;"/>
            </g>
            <g id="rect10-81" serif:id="rect10-8" transform="matrix(1.26819,0,0,1.33524,2.23176,-3.84324)">
                <rect x="142.317" y="74.106" width="26.846" height="26.846" style="fill:rgb(255,255,0);stroke:black;stroke-width:1.5px;"/>
            </g>
            <g id="rect10-63-11" serif:id="rect10-63-1" transform="matrix(1.26819,0,0,1.33524,-65.8611,-3.84324)">
                <rect x="249.703" y="74.106" width="26.846" height="26.846" style="fill:rgb(0,255,0);stroke:black;stroke-width:1.5px;"/>
            </g>
            <g transform="matrix(3.93562,0,0,3.66907,13.3985,-240.97)">
                <text x="44.239px" y="100.707px" style="font-family:'ArialMT', 'Arial', sans-serif;font-size:12px;fill:rgb(166,166,166);fill-opacity:0.61;">d</text>
            </g>
            <g transform="matrix(3.93562,0,0,3.66907,-20.648,-240.97)">
                <text x="44.239px" y="100.707px" style="font-family:'ArialMT', 'Arial', sans-serif;font-size:12px;fill:rgb(166,166,166);fill-opacity:0.61;">d</text>
            </g>
            <g transform="matrix(3.93562,0,0,3.66907,-54.6944,-240.97)">
                <text x="44.239px" y="100.707px" style="font-family:'ArialMT', 'Arial', sans-serif;font-size:12px;fill:rgb(166,166,166);fill-opacity:0.61;">d</text>
            </g>
            <g transform="matrix(4.61086,0,0,4.29858,18.419,-306.19)">
                <text x="44.239px" y="100.707px" style="font-family:'ArialMT', 'Arial', sans-serif;font-size:12px;fill:rgb(166,166,166);fill-opacity:0.61;">r</text>
            </g>
            <g transform="matrix(4.61086,0,0,4.29858,52.4655,-306.19)">
                <text x="44.239px" y="100.707px" style="font-family:'ArialMT', 'Arial', sans-serif;font-size:12px;fill:rgb(166,166,166);fill-opacity:0.61;">r</text>
            </g>
            <g transform="matrix(1.70182,0,0,1.70182,47.0017,55.2853)">
                <text x="37.938px" y="18.047px" style="font-family:'ArialMT', 'Arial', sans-serif;font-size:12px;">1 stripe of RS(3,2)</text>
            </g>
            <g transform="matrix(1.70182,0,0,1.70182,48.5965,122.123)">
                <text x="37.938px" y="18.047px" style="font-family:'ArialMT', 'Arial', sans-serif;font-size:8.226px;">Storage System Simulation with:</text>
                <text x="37.938px" y="30.439px" style="font-family:'ArialMT', 'Arial', sans-serif;font-size:12px;">5 stripes of RS(3,2)</text>
            </g>
            <g id="rect102" serif:id="rect10" transform="matrix(0.285708,0,0,0.292272,88.4693,162.141)">
                <rect x="88.624" y="74.106" width="26.846" height="26.846" style="fill:rgb(255,255,0);stroke:black;stroke-width:1.5px;"/>
            </g>
            <g id="rect10-632" serif:id="rect10-63" transform="matrix(0.285708,0,0,0.292272,73.1288,162.141)">
                <rect x="222.856" y="74.106" width="26.846" height="26.846" style="fill:rgb(0,255,0);stroke:black;stroke-width:1.5px;"/>
            </g>
            <g id="rect10-52" serif:id="rect10-5" transform="matrix(0.285708,0,0,0.292272,88.4693,162.141)">
                <rect x="115.47" y="74.106" width="26.846" height="26.846" style="fill:rgb(255,255,0);stroke:black;stroke-width:1.5px;"/>
            </g>
            <g id="rect10-82" serif:id="rect10-8" transform="matrix(0.285708,0,0,0.292272,88.4693,162.141)">
                <rect x="142.317" y="74.106" width="26.846" height="26.846" style="fill:rgb(255,255,0);stroke:black;stroke-width:1.5px;"/>
            </g>
            <g id="rect10-63-12" serif:id="rect10-63-1" transform="matrix(0.285708,0,0,0.292272,73.1288,162.141)">
                <rect x="249.703" y="74.106" width="26.846" height="26.846" style="fill:rgb(0,255,0);stroke:black;stroke-width:1.5px;"/>
            </g>
            <g transform="matrix(0.886647,0,0,0.803126,90.985,110.236)">
                <text x="44.239px" y="100.707px" style="font-family:'ArialMT', 'Arial', sans-serif;font-size:12px;fill:rgb(166,166,166);fill-opacity:0.61;">d</text>
            </g>
            <g transform="matrix(0.886647,0,0,0.803126,83.3148,110.236)">
                <text x="44.239px" y="100.707px" style="font-family:'ArialMT', 'Arial', sans-serif;font-size:12px;fill:rgb(166,166,166);fill-opacity:0.61;">d</text>
            </g>
            <g transform="matrix(0.886647,0,0,0.803126,75.6446,110.236)">
                <text x="44.239px" y="100.707px" style="font-family:'ArialMT', 'Arial', sans-serif;font-size:12px;fill:rgb(166,166,166);fill-opacity:0.61;">d</text>
            </g>
            <g transform="matrix(1.03877,0,0,0.940919,92.1161,95.9598)">
                <text x="44.239px" y="100.707px" style="font-family:'ArialMT', 'Arial', sans-serif;font-size:12px;fill:rgb(166,166,166);fill-opacity:0.61;">r</text>
            </g>
            <g transform="matrix(1.03877,0,0,0.940919,99.7863,95.9598)">
                <text x="44.239px" y="100.707px" style="font-family:'ArialMT', 'Arial', sans-serif;font-size:12px;fill:rgb(166,166,166);fill-opacity:0.61;">r</text>
            </g>
            <g id="rect103" serif:id="rect10" transform="matrix(0.285708,0,0,0.292272,88.4693,162.141)">
                <rect x="88.624" y="74.106" width="26.846" height="26.846" style="fill:rgb(255,255,0);stroke:black;stroke-width:1.5px;"/>
            </g>
            <g id="rect10-633" serif:id="rect10-63" transform="matrix(0.285708,0,0,0.292272,73.1288,162.141)">
                <rect x="222.856" y="74.106" width="26.846" height="26.846" style="fill:rgb(0,255,0);stroke:black;stroke-width:1.5px;"/>
            </g>
            <g id="rect10-53" serif:id="rect10-5" transform="matrix(0.285708,0,0,0.292272,88.4693,162.141)">
                <rect x="115.47" y="74.106" width="26.846" height="26.846" style="fill:rgb(255,255,0);stroke:black;stroke-width:1.5px;"/>
            </g>
            <g id="rect10-83" serif:id="rect10-8" transform="matrix(0.285708,0,0,0.292272,88.4693,162.141)">
                <rect x="142.317" y="74.106" width="26.846" height="26.846" style="fill:rgb(255,255,0);stroke:black;stroke-width:1.5px;"/>
            </g>
            <g id="rect10-63-13" serif:id="rect10-63-1" transform="matrix(0.285708,0,0,0.292272,73.1288,162.141)">
                <rect x="249.703" y="74.106" width="26.846" height="26.846" style="fill:rgb(0,255,0);stroke:black;stroke-width:1.5px;"/>
            </g>
            <g transform="matrix(0.886647,0,0,0.803126,90.985,110.236)">
                <text x="44.239px" y="100.707px" style="font-family:'ArialMT', 'Arial', sans-serif;font-size:12px;fill:rgb(166,166,166);fill-opacity:0.61;">d</text>
            </g>
            <g transform="matrix(0.886647,0,0,0.803126,83.3148,110.236)">
                <text x="44.239px" y="100.707px" style="font-family:'ArialMT', 'Arial', sans-serif;font-size:12px;fill:rgb(166,166,166);fill-opacity:0.61;">d</text>
            </g>
            <g transform="matrix(0.886647,0,0,0.803126,75.6446,110.236)">
                <text x="44.239px" y="100.707px" style="font-family:'ArialMT', 'Arial', sans-serif;font-size:12px;fill:rgb(166,166,166);fill-opacity:0.61;">d</text>
            </g>
            <g transform="matrix(1.03877,0,0,0.940919,92.1161,95.9598)">
                <text x="44.239px" y="100.707px" style="font-family:'ArialMT', 'Arial', sans-serif;font-size:12px;fill:rgb(166,166,166);fill-opacity:0.61;">r</text>
            </g>
            <g transform="matrix(1.03877,0,0,0.940919,99.7863,95.9598)">
                <text x="44.239px" y="100.707px" style="font-family:'ArialMT', 'Arial', sans-serif;font-size:12px;fill:rgb(166,166,166);fill-opacity:0.61;">r</text>
            </g>
            <g id="rect104" serif:id="rect10" transform="matrix(0.285708,0,0,0.292272,128.801,162.141)">
                <rect x="88.624" y="74.106" width="26.846" height="26.846" style="fill:rgb(255,255,0);stroke:black;stroke-width:1.5px;"/>
            </g>
            <g id="rect10-634" serif:id="rect10-63" transform="matrix(0.285708,0,0,0.292272,113.46,162.141)">
                <rect x="222.856" y="74.106" width="26.846" height="26.846" style="fill:rgb(0,255,0);stroke:black;stroke-width:1.5px;"/>
            </g>
            <g id="rect10-54" serif:id="rect10-5" transform="matrix(0.285708,0,0,0.292272,128.801,162.141)">
                <rect x="115.47" y="74.106" width="26.846" height="26.846" style="fill:rgb(255,255,0);stroke:black;stroke-width:1.5px;"/>
            </g>
            <g id="rect10-84" serif:id="rect10-8" transform="matrix(0.285708,0,0,0.292272,128.801,162.141)">
                <rect x="142.317" y="74.106" width="26.846" height="26.846" style="fill:rgb(255,255,0);stroke:black;stroke-width:1.5px;"/>
            </g>
            <g id="rect10-63-14" serif:id="rect10-63-1" transform="matrix(0.285708,0,0,0.292272,113.46,162.141)">
                <rect x="249.703" y="74.106" width="26.846" height="26.846" style="fill:rgb(0,255,0);stroke:black;stroke-width:1.5px;"/>
            </g>
            <g transform="matrix(0.886647,0,0,0.803126,131.317,110.236)">
                <text x="44.239px" y="100.707px" style="font-family:'ArialMT', 'Arial', sans-serif;font-size:12px;fill:rgb(166,166,166);fill-opacity:0.61;">d</text>
            </g>
            <g transform="matrix(0.886647,0,0,0.803126,123.646,110.236)">
                <text x="44.239px" y="100.707px" style="font-family:'ArialMT', 'Arial', sans-serif;font-size:12px;fill:rgb(166,166,166);fill-opacity:0.61;">d</text>
            </g>
            <g transform="matrix(0.886647,0,0,0.803126,115.976,110.236)">
                <text x="44.239px" y="100.707px" style="font-family:'ArialMT', 'Arial', sans-serif;font-size:12px;fill:rgb(166,166,166);fill-opacity:0.61;">d</text>
            </g>
            <g transform="matrix(1.03877,0,0,0.940919,132.448,95.9598)">
                <text x="44.239px" y="100.707px" style="font-family:'ArialMT', 'Arial', sans-serif;font-size:12px;fill:rgb(166,166,166);fill-opacity:0.61;">r</text>
            </g>
            <g transform="matrix(1.03877,0,0,0.940919,140.118,95.9598)">
                <text x="44.239px" y="100.707px" style="font-family:'ArialMT', 'Arial', sans-serif;font-size:12px;fill:rgb(166,166,166);fill-opacity:0.61;">r</text>
            </g>
            <g id="rect105" serif:id="rect10" transform="matrix(0.285708,0,0,0.292272,128.801,162.141)">
                <rect x="88.624" y="74.106" width="26.846" height="26.846" style="fill:rgb(255,255,0);stroke:black;stroke-width:1.5px;"/>
            </g>
            <g id="rect10-635" serif:id="rect10-63" transform="matrix(0.285708,0,0,0.292272,113.46,162.141)">
                <rect x="222.856" y="74.106" width="26.846" height="26.846" style="fill:rgb(0,255,0);stroke:black;stroke-width:1.5px;"/>
            </g>
            <g id="rect10-55" serif:id="rect10-5" transform="matrix(0.285708,0,0,0.292272,128.801,162.141)">
                <rect x="115.47" y="74.106" width="26.846" height="26.846" style="fill:rgb(255,255,0);stroke:black;stroke-width:1.5px;"/>
            </g>
            <g id="rect10-85" serif:id="rect10-8" transform="matrix(0.285708,0,0,0.292272,128.801,162.141)">
                <rect x="142.317" y="74.106" width="26.846" height="26.846" style="fill:rgb(255,255,0);stroke:black;stroke-width:1.5px;"/>
            </g>
            <g id="rect10-63-15" serif:id="rect10-63-1" transform="matrix(0.285708,0,0,0.292272,113.46,162.141)">
                <rect x="249.703" y="74.106" width="26.846" height="26.846" style="fill:rgb(0,255,0);stroke:black;stroke-width:1.5px;"/>
            </g>
            <g transform="matrix(0.886647,0,0,0.803126,131.317,110.236)">
                <text x="44.239px" y="100.707px" style="font-family:'ArialMT', 'Arial', sans-serif;font-size:12px;fill:rgb(166,166,166);fill-opacity:0.61;">d</text>
            </g>
            <g transform="matrix(0.886647,0,0,0.803126,123.646,110.236)">
                <text x="44.239px" y="100.707px" style="font-family:'ArialMT', 'Arial', sans-serif;font-size:12px;fill:rgb(166,166,166);fill-opacity:0.61;">d</text>
            </g>
            <g transform="matrix(0.886647,0,0,0.803126,115.976,110.236)">
                <text x="44.239px" y="100.707px" style="font-family:'ArialMT', 'Arial', sans-serif;font-size:12px;fill:rgb(166,166,166);fill-opacity:0.61;">d</text>
            </g>
            <g transform="matrix(1.03877,0,0,0.940919,132.448,95.9598)">
                <text x="44.239px" y="100.707px" style="font-family:'ArialMT', 'Arial', sans-serif;font-size:12px;fill:rgb(166,166,166);fill-opacity:0.61;">r</text>
            </g>
            <g transform="matrix(1.03877,0,0,0.940919,140.118,95.9598)">
                <text x="44.239px" y="100.707px" style="font-family:'ArialMT', 'Arial', sans-serif;font-size:12px;fill:rgb(166,166,166);fill-opacity:0.61;">r</text>
            </g>
            <g id="rect106" serif:id="rect10" transform="matrix(0.285708,0,0,0.292272,169.133,162.141)">
                <rect x="88.624" y="74.106" width="26.846" height="26.846" style="fill:rgb(255,255,0);stroke:black;stroke-width:1.5px;"/>
            </g>
            <g id="rect10-636" serif:id="rect10-63" transform="matrix(0.285708,0,0,0.292272,153.792,162.141)">
                <rect x="222.856" y="74.106" width="26.846" height="26.846" style="fill:rgb(0,255,0);stroke:black;stroke-width:1.5px;"/>
            </g>
            <g id="rect10-56" serif:id="rect10-5" transform="matrix(0.285708,0,0,0.292272,169.133,162.141)">
                <rect x="115.47" y="74.106" width="26.846" height="26.846" style="fill:rgb(255,255,0);stroke:black;stroke-width:1.5px;"/>
            </g>
            <g id="rect10-86" serif:id="rect10-8" transform="matrix(0.285708,0,0,0.292272,169.133,162.141)">
                <rect x="142.317" y="74.106" width="26.846" height="26.846" style="fill:rgb(255,255,0);stroke:black;stroke-width:1.5px;"/>
            </g>
            <g id="rect10-63-16" serif:id="rect10-63-1" transform="matrix(0.285708,0,0,0.292272,153.792,162.141)">
                <rect x="249.703" y="74.106" width="26.846" height="26.846" style="fill:rgb(0,255,0);stroke:black;stroke-width:1.5px;"/>
            </g>
            <g transform="matrix(0.886647,0,0,0.803126,171.648,110.236)">
                <text x="44.239px" y="100.707px" style="font-family:'ArialMT', 'Arial', sans-serif;font-size:12px;fill:rgb(166,166,166);fill-opacity:0.61;">d</text>
            </g>
            <g transform="matrix(0.886647,0,0,0.803126,163.978,110.236)">
                <text x="44.239px" y="100.707px" style="font-family:'ArialMT', 'Arial', sans-serif;font-size:12px;fill:rgb(166,166,166);fill-opacity:0.61;">d</text>
            </g>
            <g transform="matrix(0.886647,0,0,0.803126,156.308,110.236)">
                <text x="44.239px" y="100.707px" style="font-family:'ArialMT', 'Arial', sans-serif;font-size:12px;fill:rgb(166,166,166);fill-opacity:0.61;">d</text>
            </g>
            <g transform="matrix(1.03877,0,0,0.940919,172.779,95.9598)">
                <text x="44.239px" y="100.707px" style="font-family:'ArialMT', 'Arial', sans-serif;font-size:12px;fill:rgb(166,166,166);fill-opacity:0.61;">r</text>
            </g>
            <g transform="matrix(1.03877,0,0,0.940919,180.45,95.9598)">
                <text x="44.239px" y="100.707px" style="font-family:'ArialMT', 'Arial', sans-serif;font-size:12px;fill:rgb(166,166,166);fill-opacity:0.61;">r</text>
            </g>
            <g id="rect107" serif:id="rect10" transform="matrix(0.285708,0,0,0.292272,169.133,162.141)">
                <rect x="88.624" y="74.106" width="26.846" height="26.846" style="fill:rgb(255,255,0);stroke:black;stroke-width:1.5px;"/>
            </g>
            <g id="rect10-637" serif:id="rect10-63" transform="matrix(0.285708,0,0,0.292272,153.792,162.141)">
                <rect x="222.856" y="74.106" width="26.846" height="26.846" style="fill:rgb(0,255,0);stroke:black;stroke-width:1.5px;"/>
            </g>
            <g id="rect10-57" serif:id="rect10-5" transform="matrix(0.285708,0,0,0.292272,169.133,162.141)">
                <rect x="115.47" y="74.106" width="26.846" height="26.846" style="fill:rgb(255,255,0);stroke:black;stroke-width:1.5px;"/>
            </g>
            <g id="rect10-87" serif:id="rect10-8" transform="matrix(0.285708,0,0,0.292272,169.133,162.141)">
                <rect x="142.317" y="74.106" width="26.846" height="26.846" style="fill:rgb(255,255,0);stroke:black;stroke-width:1.5px;"/>
            </g>
            <g id="rect10-63-17" serif:id="rect10-63-1" transform="matrix(0.285708,0,0,0.292272,153.792,162.141)">
                <rect x="249.703" y="74.106" width="26.846" height="26.846" style="fill:rgb(0,255,0);stroke:black;stroke-width:1.5px;"/>
            </g>
            <g transform="matrix(0.886647,0,0,0.803126,171.648,110.236)">
                <text x="44.239px" y="100.707px" style="font-family:'ArialMT', 'Arial', sans-serif;font-size:12px;fill:rgb(166,166,166);fill-opacity:0.61;">d</text>
            </g>
            <g transform="matrix(0.886647,0,0,0.803126,163.978,110.236)">
                <text x="44.239px" y="100.707px" style="font-family:'ArialMT', 'Arial', sans-serif;font-size:12px;fill:rgb(166,166,166);fill-opacity:0.61;">d</text>
            </g>
            <g transform="matrix(0.886647,0,0,0.803126,156.308,110.236)">
                <text x="44.239px" y="100.707px" style="font-family:'ArialMT', 'Arial', sans-serif;font-size:12px;fill:rgb(166,166,166);fill-opacity:0.61;">d</text>
            </g>
            <g transform="matrix(1.03877,0,0,0.940919,172.779,95.9598)">
                <text x="44.239px" y="100.707px" style="font-family:'ArialMT', 'Arial', sans-serif;font-size:12px;fill:rgb(166,166,166);fill-opacity:0.61;">r</text>
            </g>
            <g transform="matrix(1.03877,0,0,0.940919,180.45,95.9598)">
                <text x="44.239px" y="100.707px" style="font-family:'ArialMT', 'Arial', sans-serif;font-size:12px;fill:rgb(166,166,166);fill-opacity:0.61;">r</text>
            </g>
            <g id="rect108" serif:id="rect10" transform="matrix(0.285708,0,0,0.292272,209.464,162.141)">
                <rect x="88.624" y="74.106" width="26.846" height="26.846" style="fill:rgb(255,255,0);stroke:black;stroke-width:1.5px;"/>
            </g>
            <g id="rect10-638" serif:id="rect10-63" transform="matrix(0.285708,0,0,0.292272,194.124,162.141)">
                <rect x="222.856" y="74.106" width="26.846" height="26.846" style="fill:rgb(0,255,0);stroke:black;stroke-width:1.5px;"/>
            </g>
            <g id="rect10-58" serif:id="rect10-5" transform="matrix(0.285708,0,0,0.292272,209.464,162.141)">
                <rect x="115.47" y="74.106" width="26.846" height="26.846" style="fill:rgb(255,255,0);stroke:black;stroke-width:1.5px;"/>
            </g>
            <g id="rect10-88" serif:id="rect10-8" transform="matrix(0.285708,0,0,0.292272,209.464,162.141)">
                <rect x="142.317" y="74.106" width="26.846" height="26.846" style="fill:rgb(255,255,0);stroke:black;stroke-width:1.5px;"/>
            </g>
            <g id="rect10-63-18" serif:id="rect10-63-1" transform="matrix(0.285708,0,0,0.292272,194.124,162.141)">
                <rect x="249.703" y="74.106" width="26.846" height="26.846" style="fill:rgb(0,255,0);stroke:black;stroke-width:1.5px;"/>
            </g>
            <g transform="matrix(0.886647,0,0,0.803126,211.98,110.236)">
                <text x="44.239px" y="100.707px" style="font-family:'ArialMT', 'Arial', sans-serif;font-size:12px;fill:rgb(166,166,166);fill-opacity:0.61;">d</text>
            </g>
            <g transform="matrix(0.886647,0,0,0.803126,204.31,110.236)">
                <text x="44.239px" y="100.707px" style="font-family:'ArialMT', 'Arial', sans-serif;font-size:12px;fill:rgb(166,166,166);fill-opacity:0.61;">d</text>
            </g>
            <g transform="matrix(0.886647,0,0,0.803126,196.639,110.236)">
                <text x="44.239px" y="100.707px" style="font-family:'ArialMT', 'Arial', sans-serif;font-size:12px;fill:rgb(166,166,166);fill-opacity:0.61;">d</text>
            </g>
            <g transform="matrix(1.03877,0,0,0.940919,213.111,95.9598)">
                <text x="44.239px" y="100.707px" style="font-family:'ArialMT', 'Arial', sans-serif;font-size:12px;fill:rgb(166,166,166);fill-opacity:0.61;">r</text>
            </g>
            <g transform="matrix(1.03877,0,0,0.940919,220.781,95.9598)">
                <text x="44.239px" y="100.707px" style="font-family:'ArialMT', 'Arial', sans-serif;font-size:12px;fill:rgb(166,166,166);fill-opacity:0.61;">r</text>
            </g>
            <g id="rect109" serif:id="rect10" transform="matrix(0.285708,0,0,0.292272,209.464,162.141)">
                <rect x="88.624" y="74.106" width="26.846" height="26.846" style="fill:rgb(255,255,0);stroke:black;stroke-width:1.5px;"/>
            </g>
            <g id="rect10-639" serif:id="rect10-63" transform="matrix(0.285708,0,0,0.292272,194.124,162.141)">
                <rect x="222.856" y="74.106" width="26.846" height="26.846" style="fill:rgb(0,255,0);stroke:black;stroke-width:1.5px;"/>
            </g>
            <g id="rect10-59" serif:id="rect10-5" transform="matrix(0.285708,0,0,0.292272,209.464,162.141)">
                <rect x="115.47" y="74.106" width="26.846" height="26.846" style="fill:rgb(255,255,0);stroke:black;stroke-width:1.5px;"/>
            </g>
            <g id="rect10-89" serif:id="rect10-8" transform="matrix(0.285708,0,0,0.292272,209.464,162.141)">
                <rect x="142.317" y="74.106" width="26.846" height="26.846" style="fill:rgb(255,255,0);stroke:black;stroke-width:1.5px;"/>
            </g>
            <g id="rect10-63-19" serif:id="rect10-63-1" transform="matrix(0.285708,0,0,0.292272,194.124,162.141)">
                <rect x="249.703" y="74.106" width="26.846" height="26.846" style="fill:rgb(0,255,0);stroke:black;stroke-width:1.5px;"/>
            </g>
            <g transform="matrix(0.886647,0,0,0.803126,211.98,110.236)">
                <text x="44.239px" y="100.707px" style="font-family:'ArialMT', 'Arial', sans-serif;font-size:12px;fill:rgb(166,166,166);fill-opacity:0.61;">d</text>
            </g>
            <g transform="matrix(0.886647,0,0,0.803126,204.31,110.236)">
                <text x="44.239px" y="100.707px" style="font-family:'ArialMT', 'Arial', sans-serif;font-size:12px;fill:rgb(166,166,166);fill-opacity:0.61;">d</text>
            </g>
            <g transform="matrix(0.886647,0,0,0.803126,196.639,110.236)">
                <text x="44.239px" y="100.707px" style="font-family:'ArialMT', 'Arial', sans-serif;font-size:12px;fill:rgb(166,166,166);fill-opacity:0.61;">d</text>
            </g>
            <g transform="matrix(1.03877,0,0,0.940919,213.111,95.9598)">
                <text x="44.239px" y="100.707px" style="font-family:'ArialMT', 'Arial', sans-serif;font-size:12px;fill:rgb(166,166,166);fill-opacity:0.61;">r</text>
            </g>
            <g transform="matrix(1.03877,0,0,0.940919,220.781,95.9598)">
                <text x="44.239px" y="100.707px" style="font-family:'ArialMT', 'Arial', sans-serif;font-size:12px;fill:rgb(166,166,166);fill-opacity:0.61;">r</text>
            </g>
            <g id="rect1010" serif:id="rect10" transform="matrix(0.285708,0,0,0.292272,249.796,162.141)">
                <rect x="88.624" y="74.106" width="26.846" height="26.846" style="fill:rgb(255,255,0);stroke:black;stroke-width:1.5px;"/>
            </g>
            <g id="rect10-6310" serif:id="rect10-63" transform="matrix(0.285708,0,0,0.292272,234.455,162.141)">
                <rect x="222.856" y="74.106" width="26.846" height="26.846" style="fill:rgb(0,255,0);stroke:black;stroke-width:1.5px;"/>
            </g>
            <g id="rect10-510" serif:id="rect10-5" transform="matrix(0.285708,0,0,0.292272,249.796,162.141)">
                <rect x="115.47" y="74.106" width="26.846" height="26.846" style="fill:rgb(255,255,0);stroke:black;stroke-width:1.5px;"/>
            </g>
            <g id="rect10-810" serif:id="rect10-8" transform="matrix(0.285708,0,0,0.292272,249.796,162.141)">
                <rect x="142.317" y="74.106" width="26.846" height="26.846" style="fill:rgb(255,255,0);stroke:black;stroke-width:1.5px;"/>
            </g>
            <g id="rect10-63-110" serif:id="rect10-63-1" transform="matrix(0.285708,0,0,0.292272,234.455,162.141)">
                <rect x="249.703" y="74.106" width="26.846" height="26.846" style="fill:rgb(0,255,0);stroke:black;stroke-width:1.5px;"/>
            </g>
            <g transform="matrix(0.886647,0,0,0.803126,252.312,110.236)">
                <text x="44.239px" y="100.707px" style="font-family:'ArialMT', 'Arial', sans-serif;font-size:12px;fill:rgb(166,166,166);fill-opacity:0.61;">d</text>
            </g>
            <g transform="matrix(0.886647,0,0,0.803126,244.641,110.236)">
                <text x="44.239px" y="100.707px" style="font-family:'ArialMT', 'Arial', sans-serif;font-size:12px;fill:rgb(166,166,166);fill-opacity:0.61;">d</text>
            </g>
            <g transform="matrix(0.886647,0,0,0.803126,236.971,110.236)">
                <text x="44.239px" y="100.707px" style="font-family:'ArialMT', 'Arial', sans-serif;font-size:12px;fill:rgb(166,166,166);fill-opacity:0.61;">d</text>
            </g>
            <g transform="matrix(1.03877,0,0,0.940919,253.443,95.9598)">
                <text x="44.239px" y="100.707px" style="font-family:'ArialMT', 'Arial', sans-serif;font-size:12px;fill:rgb(166,166,166);fill-opacity:0.61;">r</text>
            </g>
            <g transform="matrix(1.03877,0,0,0.940919,261.113,95.9598)">
                <text x="44.239px" y="100.707px" style="font-family:'ArialMT', 'Arial', sans-serif;font-size:12px;fill:rgb(166,166,166);fill-opacity:0.61;">r</text>
            </g>
            <g id="rect1011" serif:id="rect10" transform="matrix(0.285708,0,0,0.292272,249.796,162.141)">
                <rect x="88.624" y="74.106" width="26.846" height="26.846" style="fill:rgb(255,255,0);stroke:black;stroke-width:1.5px;"/>
            </g>
            <g id="rect10-6311" serif:id="rect10-63" transform="matrix(0.285708,0,0,0.292272,234.455,162.141)">
                <rect x="222.856" y="74.106" width="26.846" height="26.846" style="fill:rgb(0,255,0);stroke:black;stroke-width:1.5px;"/>
            </g>
            <g id="rect10-511" serif:id="rect10-5" transform="matrix(0.285708,0,0,0.292272,249.796,162.141)">
                <rect x="115.47" y="74.106" width="26.846" height="26.846" style="fill:rgb(255,255,0);stroke:black;stroke-width:1.5px;"/>
            </g>
            <g id="rect10-811" serif:id="rect10-8" transform="matrix(0.285708,0,0,0.292272,249.796,162.141)">
                <rect x="142.317" y="74.106" width="26.846" height="26.846" style="fill:rgb(255,255,0);stroke:black;stroke-width:1.5px;"/>
            </g>
            <g id="rect10-63-111" serif:id="rect10-63-1" transform="matrix(0.285708,0,0,0.292272,234.455,162.141)">
                <rect x="249.703" y="74.106" width="26.846" height="26.846" style="fill:rgb(0,255,0);stroke:black;stroke-width:1.5px;"/>
            </g>
            <g transform="matrix(0.886647,0,0,0.803126,252.312,110.236)">
                <text x="44.239px" y="100.707px" style="font-family:'ArialMT', 'Arial', sans-serif;font-size:12px;fill:rgb(166,166,166);fill-opacity:0.61;">d</text>
            </g>
            <g transform="matrix(0.886647,0,0,0.803126,244.641,110.236)">
                <text x="44.239px" y="100.707px" style="font-family:'ArialMT', 'Arial', sans-serif;font-size:12px;fill:rgb(166,166,166);fill-opacity:0.61;">d</text>
            </g>
            <g transform="matrix(0.886647,0,0,0.803126,236.971,110.236)">
                <text x="44.239px" y="100.707px" style="font-family:'ArialMT', 'Arial', sans-serif;font-size:12px;fill:rgb(166,166,166);fill-opacity:0.61;">d</text>
            </g>
            <g transform="matrix(1.03877,0,0,0.940919,253.443,95.9598)">
                <text x="44.239px" y="100.707px" style="font-family:'ArialMT', 'Arial', sans-serif;font-size:12px;fill:rgb(166,166,166);fill-opacity:0.61;">r</text>
            </g>
            <g transform="matrix(1.03877,0,0,0.940919,261.113,95.9598)">
                <text x="44.239px" y="100.707px" style="font-family:'ArialMT', 'Arial', sans-serif;font-size:12px;fill:rgb(166,166,166);fill-opacity:0.61;">r</text>
            </g>
        </g>
        <g transform="matrix(1.20309,0,0,0.220515,-2.84208,35.0964)">
            <rect x="27" y="113" width="204" height="19" style="fill:none;stroke:rgb(128,128,128);stroke-width:1.69px;stroke-linecap:round;stroke-linejoin:round;stroke-miterlimit:1.5;"/>
        </g>
    </g>
</svg>
